<svg xmlns="http://www.w3.org/2000/svg" version="1.1" xmlns:xlink="http://www.w3.org/1999/xlink" xmlns:svgjs="http://svgjs.com/svgjs" width="500" height="500" preserveAspectRatio="none" viewBox="0 0 500 500"><g mask="url(&quot;#SvgjsMask1524&quot;)" fill="none"><rect width="500" height="500" x="0" y="0" fill="#0e2a47"></rect><use xlink:href="#SvgjsG1532" transform="translate(0, 0)" fill="#0f457b"></use><use xlink:href="#SvgjsG1532" transform="translate(0, 480)" fill="#0f457b"></use><use xlink:href="#SvgjsG1532" transform="translate(480, 0)" fill="#0f457b"></use><use xlink:href="#SvgjsG1532" transform="translate(480, 480)" fill="#0f457b"></use></g><defs><mask id="SvgjsMask1524"><rect width="500" height="500" fill="#ffffff"></rect></mask><g id="SvgjsG1531"><path d="M11.4 10.09a46.75 46.75 0 0 1-0.26-0.61c-0.07-0.17-0.15-0.34-0.23-0.51-0.45-1.02-0.97-2.01-1.82-2.57A2.81 2.81 0 0 0 8.87 6.27c-0.08-0.04-0.16-0.07-0.24-0.1-0.95-0.4-2.05-0.28-3.15-0.09l0.04 0.11c0.06 0.13 0.11 0.25 0.17 0.38C6.78 6.38 7.8 6.28 8.63 6.72c0.82 0.44 1.31 1.33 1.77 2.34a35.1 35.1 0 0 1 0.27 0.62c0.07 0.17 0.14 0.33 0.22 0.5C11.38 11.29 11.94 12.36 12.94 12.89c0.39 0.21 0.8 0.31 1.24 0.35l0.26-0.49c-0.45-0.02-0.88-0.1-1.26-0.31-0.82-0.44-1.32-1.34-1.78-2.35z"></path><path d="M11.39 9.23c0.01 0.03 0.03 0.07 0.05 0.11 0.06 0.13 0.11 0.25 0.16 0.37 0.4-0.07 0.78-0.12 1.16-0.14l-0.64 1.21c0.1 0.18 0.2 0.35 0.3 0.5L13.34 9.57c0.35 0.02 0.68 0.08 0.98 0.2l-1.19 2.24c0.06 0.05 0.13 0.09 0.2 0.13 0.08 0.04 0.17 0.08 0.25 0.11L14.77 10.01c0.28 0.19 0.52 0.44 0.74 0.73L15.77 10.25C15.49 9.91 15.18 9.63 14.79 9.42c-1-0.53-2.2-0.4-3.4-0.19z m-6.9-2.45c-0.02-0.04-0.04-0.08-0.06-0.11-0.05-0.12-0.11-0.24-0.16-0.37-1.09 0.19-2.11 0.28-2.93-0.15C0.96 5.94 0.66 5.64 0.4 5.26l-0.27 0.5C0.4 6.1 0.72 6.39 1.1 6.6c0.99 0.53 2.19 0.4 3.39 0.18z"></path><path d="M1.28 5.71c0.07 0.05 0.14 0.1 0.21 0.14 0.08 0.04 0.15 0.07 0.24 0.1L2.92 3.7c0.27 0.19 0.51 0.43 0.72 0.71-0.01 0.01-0.02 0.02-0.02 0.03l-0.9 1.68a5.82 5.82 0 0 0 0.6-0.03L3.96 4.89c0.29 0.49 0.54 1.06 0.78 1.64C5.3 7.81 5.87 9.13 7.02 9.74c0.99 0.53 2.19 0.4 3.38 0.19l-0.05-0.12c-0.05-0.12-0.11-0.24-0.16-0.36-0.39 0.07-0.77 0.12-1.13 0.14L9.69 8.4A5.82 5.82 0 0 0 9.38 7.9l-0.89 1.67c0 0.01-0.01 0.02-0.01 0.03-0.35-0.02-0.68-0.08-0.99-0.2L8.68 7.16a1.97 1.97 0 0 0-0.22-0.14c-0.07-0.04-0.15-0.07-0.22-0.1l-1.2 2.24c-0.27-0.19-0.51-0.43-0.72-0.7 0.01-0.01 0.02-0.02 0.02-0.03L7.24 6.74a5.63 5.63 0 0 0-0.59 0.03l-0.65 1.21c-0.29-0.49-0.54-1.06-0.79-1.65C4.66 5.05 4.09 3.73 2.94 3.12c-0.38-0.2-0.79-0.31-1.21-0.36l-0.26 0.48c0.35 0.02 0.69 0.09 1 0.22L1.28 5.71z"></path></g><g id="SvgjsG1527"><path d="M9.39 12.49l0.38 0.93 1.93-0.77-0.77-1.92-0.95 0.38-0.59 1.37zM12.82 15.45l-2.63-1.4-1.43 2.68 1.79 0.95 1.33-0.46L12.82 15.45zM6.57 15.74l1.03 0.21 0.62-3.1-2.2-0.45-1.22 1.4 1.76 1.94zM10.97 3.04C9.56 0.74 8.5 0.12 6.74-1.09l-0.26 0.32c2.04 1.77 2.34 2.63 3.42 4.45l-0.34 1.17L-0.33 10.73a0.88 0.88 0 0 0 0.08 1.49c0.28 0.16 0.6 0.14 0.86-0.01l9.71-5.72 1.39 2.47 2.03-1.21-2.77-4.71" fill-rule="evenodd"></path></g><g id="SvgjsG1528"><path d="M6.86 12.35l2.15-4.04L11.78 1.23C11.86 1.05 11.77 0.95 11.67 0.89c-0.11-0.05-0.24-0.07-0.35 0.1l-4.29 6.26-2.15 4.04C3.87 9.81 2.2 10.39 1.65 11.43c-0.49 0.93-0.21 2.05 0.75 2.56 0.98 0.52 2.1 0.02 2.55-0.8L7.11 9.12l0.31 0.17-2.16 4.06c-0.51 0.96-0.11 2.09 0.72 2.54 1.05 0.55 2.11 0.17 2.61-0.76 0.56-1.06 0.07-2.77-1.73-2.78zM2.85 13.14c-0.46-0.25-0.63-0.81-0.39-1.27 0.24-0.46 0.81-0.63 1.27-0.39 0.46 0.24 0.63 0.81 0.39 1.28-0.25 0.46-0.82 0.63-1.27 0.39z m3.65 1.95a0.95 0.95 0 0 1-0.39-1.28 0.95 0.95 0 0 1 1.27-0.39 0.94 0.94 0 0 1 0.39 1.28 0.94 0.94 0 0 1-1.27 0.39z" fill-rule="evenodd"></path></g><g id="SvgjsG1529"><path d="M12.21 5.61a0.64 0.64 0 0 0-0.87 0.27c-0.17 0.31-0.05 0.7 0.27 0.86a0.64 0.64 0 0 0 0.86-0.26 0.64 0.64 0 0 0-0.26-0.87z m-2.6 4.57a0.64 0.64 0 0 0 0.27 0.87c0.31 0.17 0.7 0.05 0.86-0.27a0.64 0.64 0 0 0-0.26-0.86 0.64 0.64 0 0 0-0.87 0.26z m-1.34-7.45a0.64 0.64 0 0 0-0.6 1.13 0.64 0.64 0 0 0 0.87-0.26 0.64 0.64 0 0 0-0.27-0.87z"></path><path d="M12.34 1.25C9.91-0.05 6.69 0.59 5.15 2.35c-0.34 0.39-1.08 1.5-1.07 1.5L1.46 6.07A0.49 0.49 0 0 0 1.33 6.22a0.49 0.49 0 0 0 0.21 0.67l0.72 0.38-0.8 1.5c-0.62 1.17-0.18 2.62 0.99 3.23l0.84 0.45L2.42 14.09 8.14 17.13 10.56 12.58c1.77-0.32 3.38-1.42 4.29-3.12C16.42 6.49 15.3 2.82 12.34 1.25z m-7.52 4.37c-0.33-0.17-0.45-0.59-0.27-0.92a0.68 0.68 0 0 1 0.91-0.28c0.33 0.18 0.46 0.59 0.28 0.92a0.68 0.68 0 0 1-0.92 0.28z m8.34 3.39l-0.85 0.26-0.42-0.84c-0.17 0-0.33-0.02-0.5-0.06l-0.52 0.68 0.26 0.13-0.14 0.44c0.02 0.02 0.05 0.04 0.07 0.06 0.06 0.06 0.1 0.13 0.14 0.2l0.43-0.05 0.12 0.39-0.4 0.21c0 0.11-0.01 0.23-0.04 0.34l0.34 0.26-0.19 0.37-0.43-0.15c-0.02 0.02-0.04 0.05-0.07 0.08a1.15 1.15 0 0 1-0.2 0.14l0.06 0.43-0.4 0.12-0.2-0.41a1.15 1.15 0 0 1-0.34-0.03l-0.27 0.34L9.25 11.73l0.14-0.43c-0.02-0.02-0.05-0.04-0.07-0.07a1.17 1.17 0 0 1-0.14-0.2l-0.44 0.05L8.63 10.69l0.4-0.21a1.15 1.15 0 0 1 0.04-0.34l-0.35-0.26 0.2-0.37 0.43 0.15c0.02-0.02 0.04-0.05 0.07-0.07 0.06-0.06 0.13-0.1 0.2-0.15l-0.06-0.43 0.4-0.12 0.2 0.41a1.17 1.17 0 0 1 0.34 0.03l0.23-0.29-0.68-0.37L10.34 7.78c-0.03-0.03-0.05-0.05-0.08-0.08a2.22 2.22 0 0 1-0.23-0.32l-0.9 0.12-0.26-0.86 0.84-0.42a2.18 2.18 0 0 1 0.06-0.5l-0.72-0.55L9.4 4.52l-0.44-0.14c-0.02 0.02-0.03 0.03-0.04 0.04a1.4 1.4 0 0 1-0.2 0.15l0.07 0.59-0.56 0.17-0.28-0.55a1.44 1.44 0 0 1-0.31-0.03l-0.37 0.47-0.51-0.28 0.19-0.59c-0.01-0.02-0.03-0.03-0.05-0.04a1.43 1.43 0 0 1-0.15-0.21l-0.59 0.08-0.17-0.56 0.55-0.28a1.49 1.49 0 0 1 0.04-0.31L6.11 2.66 6.38 2.14l0.59 0.2c0.02-0.02 0.03-0.03 0.05-0.05 0.06-0.06 0.13-0.1 0.2-0.15l-0.08-0.59 0.56-0.17 0.28 0.55a1.44 1.44 0 0 1 0.32 0.04l0.36-0.47 0.52 0.27L8.99 2.36c0.02 0.02 0.03 0.03 0.04 0.05 0.06 0.06 0.1 0.13 0.15 0.2l0.59-0.07 0.18 0.56-0.56 0.27a1.4 1.4 0 0 1-0.03 0.32l0.47 0.36-0.21 0.38 0.74 0.24c0.03-0.03 0.05-0.05 0.08-0.07 0.1-0.09 0.21-0.17 0.32-0.24l-0.12-0.9 0.86-0.26 0.42 0.84a2.19 2.19 0 0 1 0.5 0.06l0.55-0.72 0.79 0.42-0.29 0.9c0.03 0.03 0.05 0.05 0.08 0.08 0.09 0.1 0.16 0.2 0.23 0.31l0.9-0.11 0.26 0.85-0.84 0.42c0 0.17-0.02 0.33-0.06 0.5l0.72 0.56-0.42 0.79-0.9-0.3c-0.03 0.03-0.05 0.05-0.07 0.08-0.1 0.09-0.21 0.16-0.32 0.23l0.11 0.9z"></path></g><g id="SvgjsG1526"><path d="M5.33 11.85S5.12 10 2.76 8.75C0.6 7.6-0.86 7.63-0.86 7.63L3.78-1.11s1.46-0.03 3.63 1.11C9.78 1.24 9.98 3.11 9.98 3.11L5.33 11.85z m0.96 0.51s1.65-0.86 4.01 0.4c2.16 1.15 2.95 2.38 2.95 2.37L17.9 6.4s-0.79-1.23-2.95-2.4c-2.35-1.27-4.02-0.38-4.01-0.38l-4.65 8.74z"></path><path d="M4.38 14.83S4.05 12.03 1.69 10.77c-2.16-1.15-3.62-1.12-3.63-1.12l0.56-1.05s1.46-0.03 3.63 1.11c2.37 1.24 2.69 4.08 2.69 4.08L4.38 14.83z m0 0s2.51-1.29 4.88-0.03c2.16 1.15 2.95 2.38 2.95 2.37l0.56-1.04s-0.79-1.23-2.95-2.4c-2.35-1.27-4.88 0.05-4.88 0.06l-0.56 1.04z"></path></g><g id="SvgjsG1525"><path d="M8.25 16l-0.22-0.11c-0.05-0.21 0-0.41 0.16-0.62 0.26-0.33 0.68-0.49 0.82-0.47l0 0a0.53 0.53 0 0 0 0.53-0.27l5.07-9.51c0.14-0.26 0.04-0.57-0.21-0.71 0 0-1.9-1.01-2.42-1.3l0.57-1.06c0.1-0.19 0.08-0.41-0.06-0.58a0.52 0.52 0 0 0-0.55-0.16L7.06 2.71C6.2 2.98 5.19 3.8 4.77 4.6L1.2 11.24c-0.5 0.93-0.16 2.09 0.77 2.59l5.78 3.1c0.25 0.13 0.57 0.04 0.7-0.22l0 0c0.14-0.26 0.04-0.57-0.2-0.71M13.45 4.99c-0.42 0.79-4.15 7.79-4.58 8.59l-5.22-2.78 4.74-1.03 3.09-5.83c0.3 0.16 1.69 0.9 1.97 1.05M2.12 11.73s0.21-0.38 0.23-0.43L7.82 14.2c-0.17 0.13-0.32 0.27-0.45 0.44-0.17 0.22-0.28 0.47-0.34 0.71l-4.57-2.44c-0.42-0.22-0.57-0.75-0.34-1.18"></path></g><g id="SvgjsG1530"><path d="M9.7 1.79l1.18 0.06 0.05-1.17-1.16-0.07-0.07 1.18zM8.87 2.36l-1.27-1.35-1.35 1.27 1.27 1.35 1.35-1.27zM8.53 3.01l2.98 1.24-1.2 2.83-2.17-0.85-0.24-1.53 0.63-1.69zM9.63 9.39l0.67 1.12 0.62 0.2 1.27-0.76 0.01-0.03-0.66-1.12-0.63-0.2-1.27 0.76-0.01 0.03zM9.31 11l1.7 1.22-1.23 1.74-1.2-0.87 0.01-1.19 0.72-0.9z" fill-rule="evenodd"></path><path d="M7.39 10.19l-1.76-8.61L5.95-1.63 5.08-2.5-1.83 10.51c-0.19 0.36-0.06 0.81 0.3 1l8.9 4.73 0.65-2.98-0.63-3.07" fill-rule="evenodd"></path><path d="M7.77 7.72l0.6-0.09-0.18-1.13-0.58 0.09-0.43 0.82 0.59 0.31zM10.65 18.02L9.04 17.16l0.61-1.14 1.01-0.31 0.57 1.23-0.58 1.08z" fill-rule="evenodd"></path></g><g id="SvgjsG1532"><use xlink:href="#SvgjsG1525" transform="translate(0, 0) scale(2)" fill="#0f457b"></use><use xlink:href="#SvgjsG1526" transform="translate(0, 48) scale(2)" fill="#0f457b"></use><use xlink:href="#SvgjsG1527" transform="translate(0, 96) scale(2)" fill="#0f457b"></use><use xlink:href="#SvgjsG1525" transform="translate(0, 144) scale(2)" fill="#0f457b"></use><use xlink:href="#SvgjsG1528" transform="translate(0, 192) scale(2)" fill="#0f457b"></use><use xlink:href="#SvgjsG1528" transform="translate(0, 240) scale(2)" fill="#0f457b"></use><use xlink:href="#SvgjsG1528" transform="translate(0, 288) scale(2)" fill="#0f457b"></use><use xlink:href="#SvgjsG1527" transform="translate(0, 336) scale(2)" fill="#0f457b"></use><use xlink:href="#SvgjsG1529" transform="translate(0, 384) scale(2)" fill="#0f457b"></use><use xlink:href="#SvgjsG1527" transform="translate(0, 432) scale(2)" fill="#0f457b"></use><use xlink:href="#SvgjsG1529" transform="translate(48, 0) scale(2)" fill="#0f457b"></use><use xlink:href="#SvgjsG1528" transform="translate(48, 48) scale(2)" fill="#0f457b"></use><use xlink:href="#SvgjsG1527" transform="translate(48, 96) scale(2)" fill="#0f457b"></use><use xlink:href="#SvgjsG1526" transform="translate(48, 144) scale(2)" fill="#0f457b"></use><use xlink:href="#SvgjsG1528" transform="translate(48, 192) scale(2)" fill="#0f457b"></use><use xlink:href="#SvgjsG1525" transform="translate(48, 240) scale(2)" fill="#0f457b"></use><use xlink:href="#SvgjsG1527" transform="translate(48, 288) scale(2)" fill="#0f457b"></use><use xlink:href="#SvgjsG1528" transform="translate(48, 336) scale(2)" fill="#0f457b"></use><use xlink:href="#SvgjsG1527" transform="translate(48, 384) scale(2)" fill="#0f457b"></use><use xlink:href="#SvgjsG1527" transform="translate(48, 432) scale(2)" fill="#0f457b"></use><use xlink:href="#SvgjsG1526" transform="translate(96, 0) scale(2)" fill="#0f457b"></use><use xlink:href="#SvgjsG1527" transform="translate(96, 48) scale(2)" fill="#0f457b"></use><use xlink:href="#SvgjsG1530" transform="translate(96, 96) scale(2)" fill="#0f457b"></use><use xlink:href="#SvgjsG1527" transform="translate(96, 144) scale(2)" fill="#0f457b"></use><use xlink:href="#SvgjsG1528" transform="translate(96, 192) scale(2)" fill="#0f457b"></use><use xlink:href="#SvgjsG1530" transform="translate(96, 240) scale(2)" fill="#0f457b"></use><use xlink:href="#SvgjsG1529" transform="translate(96, 288) scale(2)" fill="#0f457b"></use><use xlink:href="#SvgjsG1528" transform="translate(96, 336) scale(2)" fill="#0f457b"></use><use xlink:href="#SvgjsG1525" transform="translate(96, 384) scale(2)" fill="#0f457b"></use><use xlink:href="#SvgjsG1526" transform="translate(96, 432) scale(2)" fill="#0f457b"></use><use xlink:href="#SvgjsG1526" transform="translate(144, 0) scale(2)" fill="#0f457b"></use><use xlink:href="#SvgjsG1527" transform="translate(144, 48) scale(2)" fill="#0f457b"></use><use xlink:href="#SvgjsG1529" transform="translate(144, 96) scale(2)" fill="#0f457b"></use><use xlink:href="#SvgjsG1531" transform="translate(144, 144) scale(2)" fill="#0f457b"></use><use xlink:href="#SvgjsG1529" transform="translate(144, 192) scale(2)" fill="#0f457b"></use><use xlink:href="#SvgjsG1529" transform="translate(144, 240) scale(2)" fill="#0f457b"></use><use xlink:href="#SvgjsG1531" transform="translate(144, 288) scale(2)" fill="#0f457b"></use><use xlink:href="#SvgjsG1528" transform="translate(144, 336) scale(2)" fill="#0f457b"></use><use xlink:href="#SvgjsG1525" transform="translate(144, 384) scale(2)" fill="#0f457b"></use><use xlink:href="#SvgjsG1531" transform="translate(144, 432) scale(2)" fill="#0f457b"></use><use xlink:href="#SvgjsG1525" transform="translate(192, 0) scale(2)" fill="#0f457b"></use><use xlink:href="#SvgjsG1530" transform="translate(192, 48) scale(2)" fill="#0f457b"></use><use xlink:href="#SvgjsG1529" transform="translate(192, 96) scale(2)" fill="#0f457b"></use><use xlink:href="#SvgjsG1529" transform="translate(192, 144) scale(2)" fill="#0f457b"></use><use xlink:href="#SvgjsG1528" transform="translate(192, 192) scale(2)" fill="#0f457b"></use><use xlink:href="#SvgjsG1526" transform="translate(192, 240) scale(2)" fill="#0f457b"></use><use xlink:href="#SvgjsG1529" transform="translate(192, 288) scale(2)" fill="#0f457b"></use><use xlink:href="#SvgjsG1525" transform="translate(192, 336) scale(2)" fill="#0f457b"></use><use xlink:href="#SvgjsG1529" transform="translate(192, 384) scale(2)" fill="#0f457b"></use><use xlink:href="#SvgjsG1525" transform="translate(192, 432) scale(2)" fill="#0f457b"></use><use xlink:href="#SvgjsG1528" transform="translate(240, 0) scale(2)" fill="#0f457b"></use><use xlink:href="#SvgjsG1527" transform="translate(240, 48) scale(2)" fill="#0f457b"></use><use xlink:href="#SvgjsG1526" transform="translate(240, 96) scale(2)" fill="#0f457b"></use><use xlink:href="#SvgjsG1530" transform="translate(240, 144) scale(2)" fill="#0f457b"></use><use xlink:href="#SvgjsG1529" transform="translate(240, 192) scale(2)" fill="#0f457b"></use><use xlink:href="#SvgjsG1530" transform="translate(240, 240) scale(2)" fill="#0f457b"></use><use xlink:href="#SvgjsG1527" transform="translate(240, 288) scale(2)" fill="#0f457b"></use><use xlink:href="#SvgjsG1527" transform="translate(240, 336) scale(2)" fill="#0f457b"></use><use xlink:href="#SvgjsG1529" transform="translate(240, 384) scale(2)" fill="#0f457b"></use><use xlink:href="#SvgjsG1526" transform="translate(240, 432) scale(2)" fill="#0f457b"></use><use xlink:href="#SvgjsG1528" transform="translate(288, 0) scale(2)" fill="#0f457b"></use><use xlink:href="#SvgjsG1530" transform="translate(288, 48) scale(2)" fill="#0f457b"></use><use xlink:href="#SvgjsG1527" transform="translate(288, 96) scale(2)" fill="#0f457b"></use><use xlink:href="#SvgjsG1530" transform="translate(288, 144) scale(2)" fill="#0f457b"></use><use xlink:href="#SvgjsG1529" transform="translate(288, 192) scale(2)" fill="#0f457b"></use><use xlink:href="#SvgjsG1528" transform="translate(288, 240) scale(2)" fill="#0f457b"></use><use xlink:href="#SvgjsG1528" transform="translate(288, 288) scale(2)" fill="#0f457b"></use><use xlink:href="#SvgjsG1528" transform="translate(288, 336) scale(2)" fill="#0f457b"></use><use xlink:href="#SvgjsG1528" transform="translate(288, 384) scale(2)" fill="#0f457b"></use><use xlink:href="#SvgjsG1530" transform="translate(288, 432) scale(2)" fill="#0f457b"></use><use xlink:href="#SvgjsG1530" transform="translate(336, 0) scale(2)" fill="#0f457b"></use><use xlink:href="#SvgjsG1526" transform="translate(336, 48) scale(2)" fill="#0f457b"></use><use xlink:href="#SvgjsG1526" transform="translate(336, 96) scale(2)" fill="#0f457b"></use><use xlink:href="#SvgjsG1528" transform="translate(336, 144) scale(2)" fill="#0f457b"></use><use xlink:href="#SvgjsG1525" transform="translate(336, 192) scale(2)" fill="#0f457b"></use><use xlink:href="#SvgjsG1529" transform="translate(336, 240) scale(2)" fill="#0f457b"></use><use xlink:href="#SvgjsG1528" transform="translate(336, 288) scale(2)" fill="#0f457b"></use><use xlink:href="#SvgjsG1531" transform="translate(336, 336) scale(2)" fill="#0f457b"></use><use xlink:href="#SvgjsG1531" transform="translate(336, 384) scale(2)" fill="#0f457b"></use><use xlink:href="#SvgjsG1531" transform="translate(336, 432) scale(2)" fill="#0f457b"></use><use xlink:href="#SvgjsG1529" transform="translate(384, 0) scale(2)" fill="#0f457b"></use><use xlink:href="#SvgjsG1531" transform="translate(384, 48) scale(2)" fill="#0f457b"></use><use xlink:href="#SvgjsG1529" transform="translate(384, 96) scale(2)" fill="#0f457b"></use><use xlink:href="#SvgjsG1528" transform="translate(384, 144) scale(2)" fill="#0f457b"></use><use xlink:href="#SvgjsG1530" transform="translate(384, 192) scale(2)" fill="#0f457b"></use><use xlink:href="#SvgjsG1527" transform="translate(384, 240) scale(2)" fill="#0f457b"></use><use xlink:href="#SvgjsG1527" transform="translate(384, 288) scale(2)" fill="#0f457b"></use><use xlink:href="#SvgjsG1528" transform="translate(384, 336) scale(2)" fill="#0f457b"></use><use xlink:href="#SvgjsG1525" transform="translate(384, 384) scale(2)" fill="#0f457b"></use><use xlink:href="#SvgjsG1530" transform="translate(384, 432) scale(2)" fill="#0f457b"></use><use xlink:href="#SvgjsG1525" transform="translate(432, 0) scale(2)" fill="#0f457b"></use><use xlink:href="#SvgjsG1529" transform="translate(432, 48) scale(2)" fill="#0f457b"></use><use xlink:href="#SvgjsG1525" transform="translate(432, 96) scale(2)" fill="#0f457b"></use><use xlink:href="#SvgjsG1529" transform="translate(432, 144) scale(2)" fill="#0f457b"></use><use xlink:href="#SvgjsG1529" transform="translate(432, 192) scale(2)" fill="#0f457b"></use><use xlink:href="#SvgjsG1526" transform="translate(432, 240) scale(2)" fill="#0f457b"></use><use xlink:href="#SvgjsG1530" transform="translate(432, 288) scale(2)" fill="#0f457b"></use><use xlink:href="#SvgjsG1526" transform="translate(432, 336) scale(2)" fill="#0f457b"></use><use xlink:href="#SvgjsG1528" transform="translate(432, 384) scale(2)" fill="#0f457b"></use><use xlink:href="#SvgjsG1528" transform="translate(432, 432) scale(2)" fill="#0f457b"></use></g></defs></svg>