<svg id="visual" viewBox="0 0 900 600" width="900" height="600" xmlns="http://www.w3.org/2000/svg" xmlns:xlink="http://www.w3.org/1999/xlink" version="1.1"><rect x="0" y="0" width="900" height="600" fill="#003056"></rect><defs><linearGradient id="grad1_0" x1="33.3%" y1="0%" x2="100%" y2="100%"><stop offset="20%" stop-color="#f6245d" stop-opacity="1"></stop><stop offset="80%" stop-color="#f6245d" stop-opacity="1"></stop></linearGradient></defs><defs><linearGradient id="grad1_1" x1="33.3%" y1="0%" x2="100%" y2="100%"><stop offset="20%" stop-color="#f6245d" stop-opacity="1"></stop><stop offset="80%" stop-color="#af2d84" stop-opacity="1"></stop></linearGradient></defs><defs><linearGradient id="grad1_2" x1="33.3%" y1="0%" x2="100%" y2="100%"><stop offset="20%" stop-color="#543a80" stop-opacity="1"></stop><stop offset="80%" stop-color="#af2d84" stop-opacity="1"></stop></linearGradient></defs><defs><linearGradient id="grad1_3" x1="33.3%" y1="0%" x2="100%" y2="100%"><stop offset="20%" stop-color="#543a80" stop-opacity="1"></stop><stop offset="80%" stop-color="#003056" stop-opacity="1"></stop></linearGradient></defs><defs><linearGradient id="grad2_0" x1="0%" y1="0%" x2="66.7%" y2="100%"><stop offset="20%" stop-color="#f6245d" stop-opacity="1"></stop><stop offset="80%" stop-color="#f6245d" stop-opacity="1"></stop></linearGradient></defs><defs><linearGradient id="grad2_1" x1="0%" y1="0%" x2="66.7%" y2="100%"><stop offset="20%" stop-color="#af2d84" stop-opacity="1"></stop><stop offset="80%" stop-color="#f6245d" stop-opacity="1"></stop></linearGradient></defs><defs><linearGradient id="grad2_2" x1="0%" y1="0%" x2="66.7%" y2="100%"><stop offset="20%" stop-color="#af2d84" stop-opacity="1"></stop><stop offset="80%" stop-color="#543a80" stop-opacity="1"></stop></linearGradient></defs><defs><linearGradient id="grad2_3" x1="0%" y1="0%" x2="66.7%" y2="100%"><stop offset="20%" stop-color="#003056" stop-opacity="1"></stop><stop offset="80%" stop-color="#543a80" stop-opacity="1"></stop></linearGradient></defs><g transform="translate(900, 0)"><path d="M0 540.8C-28.9 485.2 -57.8 429.5 -96.8 424.1C-135.8 418.7 -185 463.6 -222.1 461.3C-259.3 459 -284.4 409.4 -289.3 362.8C-294.2 316.1 -278.7 272.5 -324.5 258.7C-370.2 245 -477.1 261.3 -487.3 234.7C-497.4 208 -410.8 138.4 -403.6 92.1C-396.4 45.9 -468.6 22.9 -540.8 0L0 0Z" fill="#29376e"></path><path d="M0 405.6C-21.7 363.9 -43.3 322.1 -72.6 318.1C-101.9 314 -138.7 347.7 -166.6 346C-194.5 344.2 -213.3 307 -217 272.1C-220.6 237.1 -209 204.3 -243.3 194.1C-277.7 183.8 -357.8 196 -365.5 176C-373.1 156 -308.1 103.8 -302.7 69.1C-297.3 34.4 -351.5 17.2 -405.6 0L0 0Z" fill="#823787"></path><path d="M0 270.4C-14.4 242.6 -28.9 214.7 -48.4 212C-67.9 209.4 -92.5 231.8 -111.1 230.6C-129.7 229.5 -142.2 204.7 -144.6 181.4C-147.1 158.1 -139.4 136.2 -162.2 129.4C-185.1 122.5 -238.6 130.7 -243.6 117.3C-248.7 104 -205.4 69.2 -201.8 46.1C-198.2 22.9 -234.3 11.5 -270.4 0L0 0Z" fill="#d72075"></path><path d="M0 135.2C-7.2 121.3 -14.4 107.4 -24.2 106C-34 104.7 -46.2 115.9 -55.5 115.3C-64.8 114.7 -71.1 102.3 -72.3 90.7C-73.5 79 -69.7 68.1 -81.1 64.7C-92.6 61.3 -119.3 65.3 -121.8 58.7C-124.4 52 -102.7 34.6 -100.9 23C-99.1 11.5 -117.2 5.7 -135.2 0L0 0Z" fill="#f6245d"></path></g><g transform="translate(0, 600)"><path d="M0 -540.8C40.3 -528.5 80.7 -516.2 112.8 -494.3C145 -472.4 168.9 -440.8 208.3 -432.5C247.6 -424.1 302.4 -439.1 337.2 -422.8C372 -406.6 386.8 -359.3 396.4 -316.1C405.9 -272.9 410.2 -233.9 412.6 -198.7C415.1 -163.5 415.7 -132.2 436.8 -99.7C457.8 -67.2 499.3 -33.6 540.8 0L0 0Z" fill="#29376e"></path><path d="M0 -405.6C30.3 -396.4 60.5 -387.2 84.6 -370.7C108.7 -354.3 126.7 -330.6 156.2 -324.3C185.7 -318.1 226.8 -329.3 252.9 -317.1C279 -305 290.1 -269.5 297.3 -237.1C304.5 -204.7 307.7 -175.4 309.5 -149C311.3 -122.6 311.8 -99.1 327.6 -74.8C343.4 -50.4 374.5 -25.2 405.6 0L0 0Z" fill="#823787"></path><path d="M0 -270.4C20.2 -264.3 40.3 -258.1 56.4 -247.1C72.5 -236.2 84.5 -220.4 104.1 -216.2C123.8 -212.1 151.2 -219.5 168.6 -211.4C186 -203.3 193.4 -179.6 198.2 -158.1C203 -136.5 205.1 -117 206.3 -99.4C207.5 -81.8 207.9 -66.1 218.4 -49.8C228.9 -33.6 249.7 -16.8 270.4 0L0 0Z" fill="#d72075"></path><path d="M0 -135.2C10.1 -132.1 20.2 -129.1 28.2 -123.6C36.2 -118.1 42.2 -110.2 52.1 -108.1C61.9 -106 75.6 -109.8 84.3 -105.7C93 -101.7 96.7 -89.8 99.1 -79C101.5 -68.2 102.6 -58.5 103.2 -49.7C103.8 -40.9 103.9 -33 109.2 -24.9C114.5 -16.8 124.8 -8.4 135.2 0L0 0Z" fill="#f6245d"></path></g></svg>