<?xml version="1.0" standalone="no"?><svg xmlns:xlink="http://www.w3.org/1999/xlink" xmlns="http://www.w3.org/2000/svg" viewBox="0 0 100 110.0008587897127" preserveAspectRatio="xMaxYMax slice"><g transform="scale(0.12629260481023272)"><rect x="0" y="0" width="791.8181818181819" height="871" fill="#ffffff"/><rect x="0" y="0" width="79.18181818181819" height="79.18181818181819" fill="#ffffff"/><rect x="0" y="0" width="39.59" height="39.59" fill="#fefffe"/><polygon points="39.59,0 39.59,39.59 0,39.59" fill="#c1ffc8"/><rect x="39.59" y="0" width="39.59" height="39.59" fill="#98f2ef"/><polygon points="39.59,0 79.18,0 39.59,39.59" fill="#f9fefe"/><rect x="0" y="39.59" width="39.59" height="39.59" fill="#dbfbf9"/><polygon points="0,39.59 39.59,39.59 39.59,79.18" fill="#d2ffd7"/><rect x="39.59" y="39.59" width="39.59" height="39.59" fill="#a5ffb0"/><polygon points="39.59,39.59 79.18,79.18 39.59,79.18" fill="#cef9f7"/><rect x="79.18" y="0" width="79.18" height="79.18" fill="#eaffed"/><rect x="79.18" y="0" width="79.18" height="79.18" fill="#b0ffba"/><rect x="158.36" y="0" width="79.18" height="79.18" fill="#cfffd5"/><polygon points="158.36,0 237.54000000000002,0 158.36,79.18" fill="#5cebe6"/><rect x="237.54545454545456" y="0" width="79.18181818181819" height="79.18181818181819" fill="#ffffff"/><rect x="237.55" y="0" width="39.59" height="39.59" fill="#c7ffce"/><path d="M 237.55 39.59 A 39.59 39.59 0 0 1 277.14 0 L 277.14 9.8975 A 29.692500000000003 29.692500000000003 0 0 0 247.44750000000002 39.59" fill="#a6ffb1"/><rect x="277.14" y="0" width="39.59" height="39.59" fill="#b1ffbb"/><path d="M 277.14 0 A 39.59 39.59 0 0 1 316.73 39.59 L 306.8325 39.59 A 29.692500000000003 29.692500000000003 0 0 0 277.14 9.8975" fill="#2be4de"/><rect x="237.55" y="39.59" width="39.59" height="39.59" fill="#f8fefe"/><path d="M 237.55 39.59 A 39.59 39.59 0 0 0 277.14 79.18 L 277.14 69.2825 A 29.692500000000003 29.692500000000003 0 0 1 247.44750000000002 39.59" fill="#75eee9"/><rect x="277.14" y="39.59" width="39.59" height="39.59" fill="#49e8e3"/><path d="M 277.14 79.18 A 39.59 39.59 0 0 0 316.73 39.59 L 306.8325 39.59 A 29.692500000000003 29.692500000000003 0 0 1 277.14 69.2825" fill="#f7fff8"/><rect x="316.72727272727275" y="0" width="79.18181818181819" height="79.18181818181819" fill="#ffffff"/><rect x="316.73" y="0" width="39.59" height="39.59" fill="#27e4dd"/><path d="M 316.73 39.59 A 39.59 39.59 0 0 1  356.32000000000005 0 L 356.32000000000005 39.59" fill="#74ede9"/><rect x="356.32" y="0" width="39.59" height="39.59" fill="#73ede9"/><path d="M 356.32 0 A 39.59 39.59 0 0 1 395.90999999999997 39.59 L 356.32 39.59" fill="#e9ffec"/><rect x="316.73" y="39.59" width="39.59" height="39.59" fill="#87f0ec"/><path d="M 316.73 39.59 A 39.59 39.59 0 0 0 356.32000000000005 79.18 L 356.32000000000005 39.59" fill="#d4ffd9"/><rect x="356.32" y="39.59" width="39.59" height="39.59" fill="#fefffe"/><path d="M 356.32 79.18 A 39.59 39.59 0 0 0 395.90999999999997 39.59 L 356.32 39.59" fill="#ceffd4"/><rect x="395.91" y="0" width="79.18" height="79.18" fill="#a9f4f2"/><rect x="395.91" y="0" width="79.18" height="79.18" fill="#29e4de"/><rect x="475.09" y="0" width="79.18" height="79.18" fill="#cdffd3"/><polygon points="475.09,0 554.27,0 554.27,79.18" fill="#bfffc7"/><rect x="554.27" y="0" width="79.18" height="79.18" fill="#dbffdf"/><rect x="554.27" y="0" width="79.18" height="79.18" fill="#d8ffdd"/><rect x="633.45" y="0" width="79.18" height="79.18" fill="#c7ffce"/><polygon points="712.6300000000001,0 712.6300000000001,79.18 633.45,79.18" fill="#fafffb"/><rect x="712.6363636363637" y="0" width="79.18181818181819" height="79.18181818181819" fill="#ffffff"/><rect x="712.64" y="0" width="39.59" height="39.59" fill="#f2fff3"/><path d="M 712.64 39.59 A 39.59 39.59 0 0 0 752.23 0 L 712.64 0" fill="#aeffb8"/><rect x="752.23" y="0" width="39.59" height="39.59" fill="#f4fff5"/><path d="M 752.23 0 A 39.59 39.59 0 0 0 791.82 39.59 L 791.82 0" fill="#bdffc5"/><rect x="712.64" y="39.59" width="39.59" height="39.59" fill="#68ece8"/><path d="M 712.64 39.59 A 39.59 39.59 0 0 1 752.23 79.18 L 712.64 79.18" fill="#d2ffd7"/><rect x="752.23" y="39.59" width="39.59" height="39.59" fill="#97f2ef"/><path d="M 752.23 79.18 A 39.59 39.59 0 0 1  791.82 39.59 L 791.82 79.18" fill="#4de9e3"/><rect x="0" y="79.18" width="79.18" height="79.18" fill="#75eee9"/><polygon points="0,79.18 79.18,79.18 79.18,158.36" fill="#d7ffdc"/><rect x="79.18181818181819" y="79.18181818181819" width="79.18181818181819" height="79.18181818181819" fill="#ffffff"/><rect x="79.18" y="79.18" width="39.59" height="39.59" fill="#45e8e2"/><polygon points="118.77000000000001,79.18 118.77000000000001,118.77000000000001 79.18,118.77000000000001" fill="#e7fcfb"/><rect x="118.77" y="79.18" width="39.59" height="39.59" fill="#edffef"/><polygon points="118.77,79.18 158.36,118.77000000000001 118.77,118.77000000000001" fill="#8bf0ed"/><rect x="79.18" y="118.77" width="39.59" height="39.59" fill="#b0ffb9"/><polygon points="79.18,118.77 118.77000000000001,118.77 118.77000000000001,158.36" fill="#f8fff9"/><rect x="118.77" y="118.77" width="39.59" height="39.59" fill="#d2ffd8"/><polygon points="118.77,118.77 158.36,118.77 118.77,158.36" fill="#f4fefd"/><rect x="158.36" y="79.18" width="79.18" height="79.18" fill="#28e4dd"/><path d="M 158.36 158.36 A 79.18 79.18 0 0 0 237.54000000000002 79.18 L 158.36 79.18" fill="#c8ffce"/><rect x="237.54545454545456" y="79.18181818181819" width="79.18181818181819" height="79.18181818181819" fill="#ffffff"/><rect x="237.55" y="79.18" width="39.59" height="39.59" fill="#bdffc5"/><polygon points="277.14,79.18 277.14,118.77000000000001 237.55,118.77000000000001" fill="#eaffed"/><rect x="277.14" y="79.18" width="39.59" height="39.59" fill="#32e5df"/><polygon points="277.14,79.18 316.73,79.18 277.14,118.77000000000001" fill="#e0ffe3"/><rect x="237.55" y="118.77" width="39.59" height="39.59" fill="#88f0ec"/><polygon points="237.55,118.77 277.14,118.77 277.14,158.36" fill="#f7fff8"/><rect x="277.14" y="118.77" width="39.59" height="39.59" fill="#64ece7"/><polygon points="277.14,118.77 316.73,158.36 277.14,158.36" fill="#d5ffda"/><rect x="316.72727272727275" y="79.18181818181819" width="79.18181818181819" height="79.18181818181819" fill="#ffffff"/><rect x="316.73" y="79.18" width="39.59" height="39.59" fill="#f6fff7"/><path d="M 316.73 118.77000000000001 A 39.59 39.59 0 0 0 356.32000000000005 79.18 L 316.73 79.18" fill="#b2f5f3"/><rect x="356.32" y="79.18" width="39.59" height="39.59" fill="#d9faf9"/><path d="M 356.32 79.18 A 39.59 39.59 0 0 0 395.90999999999997 118.77000000000001 L 395.90999999999997 79.18" fill="#c4ffcb"/><rect x="316.73" y="118.77" width="39.59" height="39.59" fill="#f1fdfd"/><path d="M 316.73 118.77 A 39.59 39.59 0 0 1 356.32000000000005 158.36 L 316.73 158.36" fill="#c3f7f6"/><rect x="356.32" y="118.77" width="39.59" height="39.59" fill="#e0ffe4"/><path d="M 356.32 158.36 A 39.59 39.59 0 0 1  395.90999999999997 118.77 L 395.90999999999997 158.36" fill="#b6ffbf"/><rect x="395.90909090909093" y="79.18181818181819" width="79.18181818181819" height="79.18181818181819" fill="#ffffff"/><rect x="395.91" y="79.18" width="39.59" height="39.59" fill="#a9ffb3"/><path d="M 395.91 79.18 A 39.59 39.59 0 0 0 435.5 118.77000000000001 L 435.5 79.18" fill="#a9ffb4"/><rect x="435.5" y="79.18" width="39.59" height="39.59" fill="#d3ffd8"/><path d="M 435.5 118.77000000000001 A 39.59 39.59 0 0 0 475.09000000000003 79.18 L 435.5 79.18" fill="#4ce9e3"/><rect x="395.91" y="118.77" width="39.59" height="39.59" fill="#6cede8"/><path d="M 395.91 158.36 A 39.59 39.59 0 0 1  435.5 118.77 L 435.5 158.36" fill="#eefff0"/><rect x="435.5" y="118.77" width="39.59" height="39.59" fill="#fcfffc"/><path d="M 435.5 118.77 A 39.59 39.59 0 0 1 475.09000000000003 158.36 L 435.5 158.36" fill="#c2f7f5"/><rect x="475.0909090909091" y="79.18181818181819" width="79.18181818181819" height="79.18181818181819" fill="#ffffff"/><rect x="475.09" y="79.18" width="39.59" height="39.59" fill="#d9ffdd"/><path d="M 475.09 118.77000000000001 A 39.59 39.59 0 0 1 514.68 79.18 L 514.68 89.07750000000001 A 29.692500000000003 29.692500000000003 0 0 0 484.98749999999995 118.77000000000001" fill="#7aeeea"/><rect x="514.68" y="79.18" width="39.59" height="39.59" fill="#18e2db"/><path d="M 514.68 79.18 A 39.59 39.59 0 0 1 554.27 118.77000000000001 L 544.3725 118.77000000000001 A 29.692500000000003 29.692500000000003 0 0 0 514.68 89.07750000000001" fill="#feffff"/><rect x="475.09" y="118.77" width="39.59" height="39.59" fill="#ccf9f7"/><path d="M 475.09 118.77 A 39.59 39.59 0 0 0 514.68 158.36 L 514.68 148.4625 A 29.692500000000003 29.692500000000003 0 0 1 484.98749999999995 118.77" fill="#f5fff6"/><rect x="514.68" y="118.77" width="39.59" height="39.59" fill="#ccffd2"/><path d="M 514.68 158.36 A 39.59 39.59 0 0 0 554.27 118.77 L 544.3725 118.77 A 29.692500000000003 29.692500000000003 0 0 1 514.68 148.4625" fill="#b1f5f3"/><rect x="554.27" y="79.18" width="79.18" height="79.18" fill="#fafffa"/><path d="M 554.27 158.36 A 79.18 79.18 0 0 1  633.45 79.18 L 633.45 158.36" fill="#effff1"/><rect x="633.4545454545455" y="79.18181818181819" width="79.18181818181819" height="79.18181818181819" fill="#ffffff"/><rect x="633.45" y="79.18" width="39.59" height="39.59" fill="#effff0"/><polygon points="673.0400000000001,79.18 673.0400000000001,118.77000000000001 633.45,118.77000000000001" fill="#ccffd2"/><rect x="673.05" y="79.18" width="39.59" height="39.59" fill="#92f1ee"/><polygon points="673.05,79.18 712.64,118.77000000000001 673.05,118.77000000000001" fill="#cfffd5"/><rect x="633.45" y="118.77" width="39.59" height="39.59" fill="#6fede9"/><polygon points="633.45,118.77 673.0400000000001,118.77 673.0400000000001,158.36" fill="#d0ffd6"/><rect x="673.05" y="118.77" width="39.59" height="39.59" fill="#bbffc3"/><polygon points="673.05,118.77 712.64,118.77 673.05,158.36" fill="#24e4dd"/><rect x="712.6363636363637" y="79.18181818181819" width="79.18181818181819" height="79.18181818181819" fill="#ffffff"/><rect x="712.64" y="79.18" width="39.59" height="39.59" fill="#b4ffbd"/><path d="M 712.64 118.77000000000001 A 39.59 39.59 0 0 1 752.23 79.18 L 752.23 89.07750000000001 A 29.692500000000003 29.692500000000003 0 0 0 722.5375 118.77000000000001" fill="#a5ffb0"/><rect x="752.23" y="79.18" width="39.59" height="39.59" fill="#b9ffc1"/><path d="M 752.23 79.18 A 39.59 39.59 0 0 1 791.82 118.77000000000001 L 781.9225 118.77000000000001 A 29.692500000000003 29.692500000000003 0 0 0 752.23 89.07750000000001" fill="#b2ffbb"/><rect x="712.64" y="118.77" width="39.59" height="39.59" fill="#cdffd3"/><path d="M 712.64 118.77 A 39.59 39.59 0 0 0 752.23 158.36 L 752.23 148.4625 A 29.692500000000003 29.692500000000003 0 0 1 722.5375 118.77" fill="#c7ffce"/><rect x="752.23" y="118.77" width="39.59" height="39.59" fill="#3ce7e1"/><path d="M 752.23 158.36 A 39.59 39.59 0 0 0 791.82 118.77 L 781.9225 118.77 A 29.692500000000003 29.692500000000003 0 0 1 752.23 148.4625" fill="#cff9f7"/><rect x="0" y="158.36363636363637" width="79.18181818181819" height="79.18181818181819" fill="#ffffff"/><rect x="0" y="158.36" width="39.59" height="39.59" fill="#c2f7f6"/><polygon points="39.59,158.36 39.59,197.95000000000002 0,197.95000000000002" fill="#5eebe6"/><rect x="39.59" y="158.36" width="39.59" height="39.59" fill="#e5ffe8"/><polygon points="39.59,158.36 79.18,197.95000000000002 39.59,197.95000000000002" fill="#e0ffe4"/><rect x="0" y="197.95" width="39.59" height="39.59" fill="#deffe2"/><polygon points="0,197.95 39.59,197.95 39.59,237.54" fill="#a0f3f0"/><rect x="39.59" y="197.95" width="39.59" height="39.59" fill="#fefffe"/><polygon points="39.59,197.95 79.18,197.95 39.59,237.54" fill="#cbffd1"/><rect x="79.18181818181819" y="158.36363636363637" width="79.18181818181819" height="79.18181818181819" fill="#ffffff"/><rect x="79.18" y="158.36" width="39.59" height="39.59" fill="#f4fff5"/><polygon points="118.77000000000001,158.36 118.77000000000001,197.95000000000002 79.18,197.95000000000002" fill="#adf5f2"/><rect x="118.77" y="158.36" width="39.59" height="39.59" fill="#76eeea"/><polygon points="118.77,158.36 158.36,158.36 118.77,197.95000000000002" fill="#deffe2"/><rect x="79.18" y="197.95" width="39.59" height="39.59" fill="#23e3dd"/><polygon points="79.18,197.95 118.77000000000001,197.95 118.77000000000001,237.54" fill="#a4f4f1"/><rect x="118.77" y="197.95" width="39.59" height="39.59" fill="#b4ffbd"/><polygon points="118.77,197.95 158.36,237.54 118.77,237.54" fill="#f8fff9"/><rect x="158.36363636363637" y="158.36363636363637" width="79.18181818181819" height="79.18181818181819" fill="#ffffff"/><rect x="158.36" y="158.36" width="39.59" height="39.59" fill="#44e8e2"/><path d="M 158.36 197.95000000000002 A 39.59 39.59 0 0 1  197.95000000000002 158.36 L 197.95000000000002 197.95000000000002" fill="#fafefe"/><rect x="197.95" y="158.36" width="39.59" height="39.59" fill="#f9fffa"/><path d="M 197.95 158.36 A 39.59 39.59 0 0 1 237.54 197.95000000000002 L 197.95 197.95000000000002" fill="#fbfffb"/><rect x="158.36" y="197.95" width="39.59" height="39.59" fill="#78eeea"/><path d="M 158.36 197.95 A 39.59 39.59 0 0 0 197.95000000000002 237.54 L 197.95000000000002 197.95" fill="#f5fff6"/><rect x="197.95" y="197.95" width="39.59" height="39.59" fill="#b4f6f3"/><path d="M 197.95 237.54 A 39.59 39.59 0 0 0 237.54 197.95 L 197.95 197.95" fill="#c1ffc8"/><rect x="237.55" y="158.36" width="79.18" height="79.18" fill="#f5fff7"/><path d="M 237.55 237.54000000000002 A 79.18 79.18 0 0 0 316.73 158.36 L 237.55 158.36" fill="#ddffe1"/><rect x="316.72727272727275" y="158.36363636363637" width="79.18181818181819" height="79.18181818181819" fill="#ffffff"/><rect x="316.73" y="158.36" width="39.59" height="39.59" fill="#76eeea"/><path d="M 316.73 158.36 A 39.59 39.59 0 0 1 356.32000000000005 197.95000000000002 L 316.73 197.95000000000002" fill="#c1ffc8"/><rect x="356.32" y="158.36" width="39.59" height="39.59" fill="#bfffc7"/><path d="M 356.32 197.95000000000002 A 39.59 39.59 0 0 1  395.90999999999997 158.36 L 395.90999999999997 197.95000000000002" fill="#defbfa"/><rect x="316.73" y="197.95" width="39.59" height="39.59" fill="#a8ffb2"/><path d="M 316.73 237.54 A 39.59 39.59 0 0 0 356.32000000000005 197.95 L 316.73 197.95" fill="#c2ffc9"/><rect x="356.32" y="197.95" width="39.59" height="39.59" fill="#20e3dc"/><path d="M 356.32 197.95 A 39.59 39.59 0 0 0 395.90999999999997 237.54 L 395.90999999999997 197.95" fill="#d0ffd5"/><rect x="395.91" y="158.36" width="79.18" height="79.18" fill="#3fe7e1"/><polygon points="395.91,158.36 475.09000000000003,158.36 395.91,237.54000000000002" fill="#43e7e2"/><rect x="475.0909090909091" y="158.36363636363637" width="79.18181818181819" height="79.18181818181819" fill="#ffffff"/><rect x="475.09" y="158.36" width="39.59" height="39.59" fill="#c0f7f5"/><path d="M 475.09 158.36 A 39.59 39.59 0 0 1 514.68 197.95000000000002 L 475.09 197.95000000000002" fill="#27e4dd"/><rect x="514.68" y="158.36" width="39.59" height="39.59" fill="#e9ffec"/><path d="M 514.68 197.95000000000002 A 39.59 39.59 0 0 1  554.27 158.36 L 554.27 197.95000000000002" fill="#1de3dc"/><rect x="475.09" y="197.95" width="39.59" height="39.59" fill="#b3ffbc"/><path d="M 475.09 237.54 A 39.59 39.59 0 0 0 514.68 197.95 L 475.09 197.95" fill="#3ce7e1"/><rect x="514.68" y="197.95" width="39.59" height="39.59" fill="#b8ffc1"/><path d="M 514.68 197.95 A 39.59 39.59 0 0 0 554.27 237.54 L 554.27 197.95" fill="#7cefeb"/><rect x="554.2727272727273" y="158.36363636363637" width="79.18181818181819" height="79.18181818181819" fill="#ffffff"/><rect x="554.27" y="158.36" width="39.59" height="39.59" fill="#4ee9e3"/><polygon points="593.86,158.36 593.86,197.95000000000002 554.27,197.95000000000002" fill="#cbf8f7"/><rect x="593.86" y="158.36" width="39.59" height="39.59" fill="#ccffd2"/><polygon points="593.86,158.36 633.45,197.95000000000002 593.86,197.95000000000002" fill="#a7f4f1"/><rect x="554.27" y="197.95" width="39.59" height="39.59" fill="#b0ffba"/><polygon points="554.27,197.95 593.86,197.95 593.86,237.54" fill="#e9fcfc"/><rect x="593.86" y="197.95" width="39.59" height="39.59" fill="#dbffdf"/><polygon points="593.86,197.95 633.45,197.95 593.86,237.54" fill="#f1fff3"/><rect x="633.4545454545455" y="158.36363636363637" width="79.18181818181819" height="79.18181818181819" fill="#ffffff"/><rect x="633.45" y="158.36" width="39.59" height="39.59" fill="#edffef"/><path d="M 633.45 197.95000000000002 A 39.59 39.59 0 0 1 673.0400000000001 158.36 L 673.0400000000001 168.25750000000002 A 29.692500000000003 29.692500000000003 0 0 0 643.3475000000001 197.95000000000002" fill="#c2f7f6"/><rect x="673.05" y="158.36" width="39.59" height="39.59" fill="#b9ffc1"/><path d="M 673.05 158.36 A 39.59 39.59 0 0 1 712.64 197.95000000000002 L 702.7425 197.95000000000002 A 29.692500000000003 29.692500000000003 0 0 0 673.05 168.25750000000002" fill="#f2fff3"/><rect x="633.45" y="197.95" width="39.59" height="39.59" fill="#81efeb"/><path d="M 633.45 197.95 A 39.59 39.59 0 0 0 673.0400000000001 237.54 L 673.0400000000001 227.64249999999998 A 29.692500000000003 29.692500000000003 0 0 1 643.3475000000001 197.95" fill="#c4ffcb"/><rect x="673.05" y="197.95" width="39.59" height="39.59" fill="#ceffd4"/><path d="M 673.05 237.54 A 39.59 39.59 0 0 0 712.64 197.95 L 702.7425 197.95 A 29.692500000000003 29.692500000000003 0 0 1 673.05 227.64249999999998" fill="#b9f6f4"/><rect x="712.6363636363637" y="158.36363636363637" width="79.18181818181819" height="79.18181818181819" fill="#ffffff"/><rect x="712.64" y="158.36" width="39.59" height="39.59" fill="#61ebe6"/><polygon points="752.23,158.36 752.23,197.95000000000002 712.64,197.95000000000002" fill="#e0ffe4"/><rect x="752.23" y="158.36" width="39.59" height="39.59" fill="#81efeb"/><polygon points="752.23,158.36 791.82,197.95000000000002 752.23,197.95000000000002" fill="#a1f3f0"/><rect x="712.64" y="197.95" width="39.59" height="39.59" fill="#58eae5"/><polygon points="712.64,197.95 752.23,197.95 752.23,237.54" fill="#bbf6f4"/><rect x="752.23" y="197.95" width="39.59" height="39.59" fill="#29e4de"/><polygon points="752.23,197.95 791.82,197.95 752.23,237.54" fill="#b1ffba"/><rect x="0" y="237.54545454545456" width="79.18181818181819" height="79.18181818181819" fill="#ffffff"/><rect x="0" y="237.55" width="39.59" height="39.59" fill="#1be2dc"/><polygon points="39.59,237.55 39.59,277.14 0,277.14" fill="#6dede8"/><rect x="39.59" y="237.55" width="39.59" height="39.59" fill="#a9f4f2"/><polygon points="39.59,237.55 79.18,277.14 39.59,277.14" fill="#28e4de"/><rect x="0" y="277.14" width="39.59" height="39.59" fill="#1ee3dc"/><polygon points="0,277.14 39.59,277.14 39.59,316.73" fill="#fefffe"/><rect x="39.59" y="277.14" width="39.59" height="39.59" fill="#83efec"/><polygon points="39.59,277.14 79.18,277.14 39.59,316.73" fill="#7cefeb"/><rect x="79.18181818181819" y="237.54545454545456" width="79.18181818181819" height="79.18181818181819" fill="#ffffff"/><rect x="79.18" y="237.55" width="39.59" height="39.59" fill="#a7ffb2"/><path d="M 79.18 277.14 A 39.59 39.59 0 0 1 118.77000000000001 237.55 L 118.77000000000001 247.44750000000002 A 29.692500000000003 29.692500000000003 0 0 0 89.07750000000001 277.14" fill="#bbffc3"/><rect x="118.77" y="237.55" width="39.59" height="39.59" fill="#edfff0"/><path d="M 118.77 237.55 A 39.59 39.59 0 0 1 158.36 277.14 L 148.4625 277.14 A 29.692500000000003 29.692500000000003 0 0 0 118.77 247.44750000000002" fill="#41e7e1"/><rect x="79.18" y="277.14" width="39.59" height="39.59" fill="#60ebe6"/><path d="M 79.18 277.14 A 39.59 39.59 0 0 0 118.77000000000001 316.73 L 118.77000000000001 306.8325 A 29.692500000000003 29.692500000000003 0 0 1 89.07750000000001 277.14" fill="#ffffff"/><rect x="118.77" y="277.14" width="39.59" height="39.59" fill="#c6f8f6"/><path d="M 118.77 316.73 A 39.59 39.59 0 0 0 158.36 277.14 L 148.4625 277.14 A 29.692500000000003 29.692500000000003 0 0 1 118.77 306.8325" fill="#bef7f5"/><rect x="158.36" y="237.55" width="79.18" height="79.18" fill="#acffb6"/><rect x="158.36" y="237.55" width="79.18" height="79.18" fill="#f6fff7"/><rect x="237.54545454545456" y="237.54545454545456" width="79.18181818181819" height="79.18181818181819" fill="#ffffff"/><rect x="237.55" y="237.55" width="39.59" height="39.59" fill="#5cebe6"/><path d="M 237.55 237.55 A 39.59 39.59 0 0 0 277.14 277.14 L 277.14 237.55" fill="#e4ffe7"/><rect x="277.14" y="237.55" width="39.59" height="39.59" fill="#c1ffc8"/><path d="M 277.14 277.14 A 39.59 39.59 0 0 0 316.73 237.55 L 277.14 237.55" fill="#edffef"/><rect x="237.55" y="277.14" width="39.59" height="39.59" fill="#aeffb7"/><path d="M 237.55 316.73 A 39.59 39.59 0 0 1  277.14 277.14 L 277.14 316.73" fill="#dfffe2"/><rect x="277.14" y="277.14" width="39.59" height="39.59" fill="#e8ffeb"/><path d="M 277.14 277.14 A 39.59 39.59 0 0 1 316.73 316.73 L 277.14 316.73" fill="#62ebe7"/><rect x="316.72727272727275" y="237.54545454545456" width="79.18181818181819" height="79.18181818181819" fill="#ffffff"/><rect x="316.73" y="237.55" width="39.59" height="39.59" fill="#beffc6"/><path d="M 316.73 237.55 A 39.59 39.59 0 0 1 356.32000000000005 277.14 L 316.73 277.14" fill="#dcffe0"/><rect x="356.32" y="237.55" width="39.59" height="39.59" fill="#bcffc4"/><path d="M 356.32 277.14 A 39.59 39.59 0 0 1  395.90999999999997 237.55 L 395.90999999999997 277.14" fill="#f4fefd"/><rect x="316.73" y="277.14" width="39.59" height="39.59" fill="#a8ffb2"/><path d="M 316.73 316.73 A 39.59 39.59 0 0 0 356.32000000000005 277.14 L 316.73 277.14" fill="#27e4dd"/><rect x="356.32" y="277.14" width="39.59" height="39.59" fill="#c7ffce"/><path d="M 356.32 277.14 A 39.59 39.59 0 0 0 395.90999999999997 316.73 L 395.90999999999997 277.14" fill="#c3f8f6"/><rect x="395.91" y="237.55" width="79.18" height="79.18" fill="#c3f7f6"/><rect x="395.91" y="237.55" width="79.18" height="79.18" fill="#f0fdfd"/><rect x="475.09" y="237.55" width="79.18" height="79.18" fill="#effff1"/><path d="M 475.09 316.73 A 79.18 79.18 0 0 0 554.27 237.55 L 475.09 237.55" fill="#f2fdfd"/><rect x="554.2727272727273" y="237.54545454545456" width="79.18181818181819" height="79.18181818181819" fill="#ffffff"/><rect x="554.27" y="237.55" width="39.59" height="39.59" fill="#82efec"/><path d="M 554.27 277.14 A 39.59 39.59 0 0 1  593.86 237.55 L 593.86 277.14" fill="#ecffef"/><rect x="593.86" y="237.55" width="39.59" height="39.59" fill="#eefdfc"/><path d="M 593.86 237.55 A 39.59 39.59 0 0 1 633.45 277.14 L 593.86 277.14" fill="#94f2ee"/><rect x="554.27" y="277.14" width="39.59" height="39.59" fill="#89f0ed"/><path d="M 554.27 277.14 A 39.59 39.59 0 0 0 593.86 316.73 L 593.86 277.14" fill="#6cede8"/><rect x="593.86" y="277.14" width="39.59" height="39.59" fill="#58eae5"/><path d="M 593.86 316.73 A 39.59 39.59 0 0 0 633.45 277.14 L 593.86 277.14" fill="#e0ffe4"/><rect x="633.45" y="237.55" width="79.18" height="79.18" fill="#77eeea"/><polygon points="633.45,237.55 712.6300000000001,237.55 712.6300000000001,316.73" fill="#e4fcfb"/><rect x="712.6363636363637" y="237.54545454545456" width="79.18181818181819" height="79.18181818181819" fill="#ffffff"/><rect x="712.64" y="237.55" width="39.59" height="39.59" fill="#95f2ef"/><path d="M 712.64 237.55 A 39.59 39.59 0 0 0 752.23 277.14 L 752.23 237.55" fill="#e8ffeb"/><rect x="752.23" y="237.55" width="39.59" height="39.59" fill="#c2ffc9"/><path d="M 752.23 277.14 A 39.59 39.59 0 0 0 791.82 237.55 L 752.23 237.55" fill="#abffb5"/><rect x="712.64" y="277.14" width="39.59" height="39.59" fill="#c1ffc9"/><path d="M 712.64 316.73 A 39.59 39.59 0 0 1  752.23 277.14 L 752.23 316.73" fill="#8cf1ed"/><rect x="752.23" y="277.14" width="39.59" height="39.59" fill="#caffd0"/><path d="M 752.23 277.14 A 39.59 39.59 0 0 1 791.82 316.73 L 752.23 316.73" fill="#74eee9"/><rect x="0" y="316.73" width="79.18" height="79.18" fill="#93f1ee"/><rect x="0" y="316.73" width="79.18" height="79.18" fill="#73ede9"/><rect x="79.18" y="316.73" width="79.18" height="79.18" fill="#eafcfc"/><rect x="79.18" y="316.73" width="79.18" height="79.18" fill="#f3fff5"/><rect x="158.36" y="316.73" width="79.18" height="79.18" fill="#deffe2"/><polygon points="158.36,316.73 237.54000000000002,316.73 158.36,395.91" fill="#f7fff8"/><rect x="237.55" y="316.73" width="79.18" height="79.18" fill="#99f2ef"/><path d="M 237.55 395.91 A 79.18 79.18 0 0 1  316.73 316.73 L 237.55 395.91 A 79.18 79.18 0 0 0 316.73 316.73" fill="#a0f3f0"/><rect x="316.72727272727275" y="316.72727272727275" width="79.18181818181819" height="79.18181818181819" fill="#ffffff"/><rect x="316.73" y="316.73" width="39.59" height="39.59" fill="#dcffe1"/><path d="M 316.73 356.32000000000005 A 39.59 39.59 0 0 1  356.32000000000005 316.73 L 356.32000000000005 356.32000000000005" fill="#85f0ec"/><rect x="356.32" y="316.73" width="39.59" height="39.59" fill="#b7ffc0"/><path d="M 356.32 316.73 A 39.59 39.59 0 0 1 395.90999999999997 356.32000000000005 L 356.32 356.32000000000005" fill="#a7ffb2"/><rect x="316.73" y="356.32" width="39.59" height="39.59" fill="#e2ffe5"/><path d="M 316.73 356.32 A 39.59 39.59 0 0 0 356.32000000000005 395.90999999999997 L 356.32000000000005 356.32" fill="#ccffd2"/><rect x="356.32" y="356.32" width="39.59" height="39.59" fill="#ceffd4"/><path d="M 356.32 395.90999999999997 A 39.59 39.59 0 0 0 395.90999999999997 356.32 L 356.32 356.32" fill="#61ebe6"/><rect x="395.91" y="316.73" width="79.18" height="79.18" fill="#e9ffec"/><polygon points="395.91,316.73 475.09000000000003,316.73 395.91,395.91" fill="#e1ffe5"/><rect x="475.09" y="316.73" width="79.18" height="79.18" fill="#a5ffb0"/><path d="M 475.09 395.91 A 79.18 79.18 0 0 0 554.27 316.73 L 475.09 316.73" fill="#48e8e2"/><rect x="554.2727272727273" y="316.72727272727275" width="79.18181818181819" height="79.18181818181819" fill="#ffffff"/><rect x="554.27" y="316.73" width="39.59" height="39.59" fill="#acf5f2"/><polygon points="593.86,316.73 593.86,356.32000000000005 554.27,356.32000000000005" fill="#adffb7"/><rect x="593.86" y="316.73" width="39.59" height="39.59" fill="#abffb5"/><polygon points="593.86,316.73 633.45,356.32000000000005 593.86,356.32000000000005" fill="#a7ffb2"/><rect x="554.27" y="356.32" width="39.59" height="39.59" fill="#b0f5f3"/><polygon points="554.27,356.32 593.86,356.32 554.27,395.90999999999997" fill="#bfffc6"/><rect x="593.86" y="356.32" width="39.59" height="39.59" fill="#2be4de"/><polygon points="593.86,356.32 633.45,356.32 633.45,395.90999999999997" fill="#bdffc5"/><rect x="633.45" y="316.73" width="79.18" height="79.18" fill="#fafffb"/><rect x="633.45" y="316.73" width="79.18" height="79.18" fill="#fefffe"/><rect x="712.6363636363637" y="316.72727272727275" width="79.18181818181819" height="79.18181818181819" fill="#ffffff"/><rect x="712.64" y="316.73" width="39.59" height="39.59" fill="#d6ffdb"/><polygon points="752.23,316.73 752.23,356.32000000000005 712.64,356.32000000000005" fill="#f5fff6"/><rect x="752.23" y="316.73" width="39.59" height="39.59" fill="#3ae6e0"/><polygon points="752.23,316.73 791.82,316.73 752.23,356.32000000000005" fill="#7aeeea"/><rect x="712.64" y="356.32" width="39.59" height="39.59" fill="#d1f9f8"/><polygon points="712.64,356.32 752.23,356.32 752.23,395.90999999999997" fill="#c2f7f6"/><rect x="752.23" y="356.32" width="39.59" height="39.59" fill="#5debe6"/><polygon points="752.23,356.32 791.82,395.90999999999997 752.23,395.90999999999997" fill="#e3fbfb"/><rect x="0" y="395.90909090909093" width="79.18181818181819" height="79.18181818181819" fill="#ffffff"/><rect x="0" y="395.91" width="39.59" height="39.59" fill="#bef7f5"/><path d="M 0 395.91 A 39.59 39.59 0 0 0 39.59 435.5 L 39.59 395.91" fill="#adf5f2"/><rect x="39.59" y="395.91" width="39.59" height="39.59" fill="#80efeb"/><path d="M 39.59 435.5 A 39.59 39.59 0 0 0 79.18 395.91 L 39.59 395.91" fill="#99f2ef"/><rect x="0" y="435.5" width="39.59" height="39.59" fill="#f9fffa"/><path d="M 0 475.09000000000003 A 39.59 39.59 0 0 1  39.59 435.5 L 39.59 475.09000000000003" fill="#a5ffb0"/><rect x="39.59" y="435.5" width="39.59" height="39.59" fill="#c0ffc8"/><path d="M 39.59 435.5 A 39.59 39.59 0 0 1 79.18 475.09000000000003 L 39.59 475.09000000000003" fill="#6aece8"/><rect x="79.18181818181819" y="395.90909090909093" width="79.18181818181819" height="79.18181818181819" fill="#ffffff"/><rect x="79.18" y="395.91" width="39.59" height="39.59" fill="#cfffd5"/><polygon points="118.77000000000001,395.91 118.77000000000001,435.5 79.18,435.5" fill="#22e3dd"/><rect x="118.77" y="395.91" width="39.59" height="39.59" fill="#f5fff6"/><polygon points="118.77,395.91 158.36,395.91 118.77,435.5" fill="#3fe7e1"/><rect x="79.18" y="435.5" width="39.59" height="39.59" fill="#5ceae6"/><polygon points="79.18,435.5 118.77000000000001,435.5 118.77000000000001,475.09000000000003" fill="#f9fefe"/><rect x="118.77" y="435.5" width="39.59" height="39.59" fill="#e5ffe8"/><polygon points="118.77,435.5 158.36,475.09000000000003 118.77,475.09000000000003" fill="#caf8f7"/><rect x="158.36" y="395.91" width="79.18" height="79.18" fill="#a7ffb2"/><path d="M 158.36 395.91 A 79.18 79.18 0 0 1 237.54000000000002 475.09000000000003 L 158.36 475.09000000000003" fill="#fcfffc"/><rect x="237.54545454545456" y="395.90909090909093" width="79.18181818181819" height="79.18181818181819" fill="#ffffff"/><rect x="237.55" y="395.91" width="39.59" height="39.59" fill="#61ebe6"/><path d="M 237.55 395.91 A 39.59 39.59 0 0 1 277.14 435.5 L 237.55 435.5" fill="#45e8e2"/><rect x="277.14" y="395.91" width="39.59" height="39.59" fill="#e9ffec"/><path d="M 277.14 435.5 A 39.59 39.59 0 0 1  316.73 395.91 L 316.73 435.5" fill="#f6fff7"/><rect x="237.55" y="435.5" width="39.59" height="39.59" fill="#63ebe7"/><path d="M 237.55 475.09000000000003 A 39.59 39.59 0 0 0 277.14 435.5 L 237.55 435.5" fill="#d0ffd5"/><rect x="277.14" y="435.5" width="39.59" height="39.59" fill="#89f0ed"/><path d="M 277.14 435.5 A 39.59 39.59 0 0 0 316.73 475.09000000000003 L 316.73 435.5" fill="#dffbfa"/><rect x="316.73" y="395.91" width="79.18" height="79.18" fill="#f7fff8"/><rect x="316.73" y="395.91" width="79.18" height="79.18" fill="#cdffd3"/><rect x="395.91" y="395.91" width="79.18" height="79.18" fill="#e4ffe7"/><rect x="395.91" y="395.91" width="79.18" height="79.18" fill="#bfffc7"/><rect x="475.09" y="395.91" width="79.18" height="79.18" fill="#d5ffda"/><path d="M 475.09 475.09000000000003 A 79.18 79.18 0 0 1  554.27 395.91 L 554.27 475.09000000000003" fill="#3ee7e1"/><rect x="554.2727272727273" y="395.90909090909093" width="79.18181818181819" height="79.18181818181819" fill="#ffffff"/><rect x="554.27" y="395.91" width="39.59" height="39.59" fill="#3ae6e0"/><circle cx="574.0649999999999" cy="415.70500000000004" r="19.795" fill="#d8ffdd"/><rect x="593.86" y="395.91" width="39.59" height="39.59" fill="#42e7e1"/><rect x="593.86" y="395.91" width="39.59" height="39.59" fill="#b0f5f3"/><rect x="554.27" y="435.5" width="39.59" height="39.59" fill="#9ff3f0"/><circle cx="574.0649999999999" cy="455.295" r="19.795" fill="#7eefeb"/><rect x="593.86" y="435.5" width="39.59" height="39.59" fill="#dbffe0"/><rect x="593.86" y="435.5" width="39.59" height="39.59" fill="#d7faf9"/><rect x="633.45" y="395.91" width="79.18" height="79.18" fill="#feffff"/><polygon points="633.45,395.91 712.6300000000001,395.91 633.45,475.09000000000003" fill="#7beeea"/><rect x="712.64" y="395.91" width="79.18" height="79.18" fill="#f0fff2"/><path d="M 712.64 395.91 A 79.18 79.18 0 0 1 791.8199999999999 475.09000000000003 L 712.64 475.09000000000003" fill="#cfffd5"/><rect x="0" y="475.0909090909091" width="79.18181818181819" height="79.18181818181819" fill="#ffffff"/><rect x="0" y="475.09" width="39.59" height="39.59" fill="#27e4dd"/><path d="M 0 514.68 A 39.59 39.59 0 0 1 39.59 475.09 L 39.59 484.98749999999995 A 29.692500000000003 29.692500000000003 0 0 0 9.8975 514.68" fill="#19e2db"/><rect x="39.59" y="475.09" width="39.59" height="39.59" fill="#a6f4f1"/><path d="M 39.59 475.09 A 39.59 39.59 0 0 1 79.18 514.68 L 69.2825 514.68 A 29.692500000000003 29.692500000000003 0 0 0 39.59 484.98749999999995" fill="#7eefeb"/><rect x="0" y="514.68" width="39.59" height="39.59" fill="#f1fff3"/><path d="M 0 514.68 A 39.59 39.59 0 0 0 39.59 554.27 L 39.59 544.3725 A 29.692500000000003 29.692500000000003 0 0 1 9.8975 514.68" fill="#b7ffc0"/><rect x="39.59" y="514.68" width="39.59" height="39.59" fill="#f5fefd"/><path d="M 39.59 554.27 A 39.59 39.59 0 0 0 79.18 514.68 L 69.2825 514.68 A 29.692500000000003 29.692500000000003 0 0 1 39.59 544.3725" fill="#6fede9"/><rect x="79.18" y="475.09" width="79.18" height="79.18" fill="#eefdfc"/><path d="M 79.18 554.27 A 79.18 79.18 0 0 0 158.36 475.09 L 79.18 475.09" fill="#f3fff4"/><rect x="158.36" y="475.09" width="79.18" height="79.18" fill="#f5fff6"/><rect x="158.36" y="475.09" width="79.18" height="79.18" fill="#c3ffca"/><rect x="237.55" y="475.09" width="79.18" height="79.18" fill="#b1ffba"/><polygon points="237.55,475.09 316.73,475.09 237.55,554.27" fill="#53e9e4"/><rect x="316.73" y="475.09" width="79.18" height="79.18" fill="#86f0ec"/><polygon points="395.91,475.09 395.91,554.27 316.73,554.27" fill="#e1fbfa"/><rect x="395.90909090909093" y="475.0909090909091" width="79.18181818181819" height="79.18181818181819" fill="#ffffff"/><rect x="395.91" y="475.09" width="39.59" height="39.59" fill="#47e8e2"/><path d="M 395.91 475.09 A 39.59 39.59 0 0 1 435.5 514.68 L 395.91 514.68" fill="#d4ffd9"/><rect x="435.5" y="475.09" width="39.59" height="39.59" fill="#ddfbfa"/><path d="M 435.5 514.68 A 39.59 39.59 0 0 1  475.09000000000003 475.09 L 475.09000000000003 514.68" fill="#fdfffd"/><rect x="395.91" y="514.68" width="39.59" height="39.59" fill="#a6ffb1"/><path d="M 395.91 554.27 A 39.59 39.59 0 0 0 435.5 514.68 L 395.91 514.68" fill="#a8f4f1"/><rect x="435.5" y="514.68" width="39.59" height="39.59" fill="#9df3f0"/><path d="M 435.5 514.68 A 39.59 39.59 0 0 0 475.09000000000003 554.27 L 475.09000000000003 514.68" fill="#9ef3f0"/><rect x="475.09" y="475.09" width="79.18" height="79.18" fill="#74eee9"/><polygon points="475.09,475.09 554.27,475.09 475.09,554.27" fill="#f2fff3"/><rect x="554.27" y="475.09" width="79.18" height="79.18" fill="#f2fff3"/><rect x="554.27" y="475.09" width="79.18" height="79.18" fill="#c1ffc8"/><rect x="633.45" y="475.09" width="79.18" height="79.18" fill="#64ece7"/><path d="M 633.45 475.09 A 79.18 79.18 0 0 0 712.6300000000001 554.27 L 712.6300000000001 475.09" fill="#d1ffd6"/><rect x="712.6363636363637" y="475.0909090909091" width="79.18181818181819" height="79.18181818181819" fill="#ffffff"/><rect x="712.64" y="475.09" width="39.59" height="39.59" fill="#e6ffe9"/><path d="M 712.64 514.68 A 39.59 39.59 0 0 1 752.23 475.09 L 752.23 484.98749999999995 A 29.692500000000003 29.692500000000003 0 0 0 722.5375 514.68" fill="#3be6e0"/><rect x="752.23" y="475.09" width="39.59" height="39.59" fill="#c0ffc7"/><path d="M 752.23 475.09 A 39.59 39.59 0 0 1 791.82 514.68 L 781.9225 514.68 A 29.692500000000003 29.692500000000003 0 0 0 752.23 484.98749999999995" fill="#92f1ee"/><rect x="712.64" y="514.68" width="39.59" height="39.59" fill="#e4ffe8"/><path d="M 712.64 514.68 A 39.59 39.59 0 0 0 752.23 554.27 L 752.23 544.3725 A 29.692500000000003 29.692500000000003 0 0 1 722.5375 514.68" fill="#9df3f0"/><rect x="752.23" y="514.68" width="39.59" height="39.59" fill="#3be6e0"/><path d="M 752.23 554.27 A 39.59 39.59 0 0 0 791.82 514.68 L 781.9225 514.68 A 29.692500000000003 29.692500000000003 0 0 1 752.23 544.3725" fill="#5beae6"/><rect x="0" y="554.27" width="79.18" height="79.18" fill="#b1f5f3"/><path d="M 0 554.27 A 79.18 79.18 0 0 1 79.18 633.45 L 0 633.45" fill="#3be6e0"/><rect x="79.18181818181819" y="554.2727272727273" width="79.18181818181819" height="79.18181818181819" fill="#ffffff"/><rect x="79.18" y="554.27" width="39.59" height="39.59" fill="#f7fff8"/><circle cx="98.97500000000001" cy="574.0649999999999" r="19.795" fill="#a6ffb0"/><rect x="118.77" y="554.27" width="39.59" height="39.59" fill="#fbfffb"/><rect x="118.77" y="554.27" width="39.59" height="39.59" fill="#71ede9"/><rect x="79.18" y="593.86" width="39.59" height="39.59" fill="#e9ffeb"/><circle cx="98.97500000000001" cy="613.655" r="19.795" fill="#b5ffbe"/><rect x="118.77" y="593.86" width="39.59" height="39.59" fill="#f1fff3"/><rect x="118.77" y="593.86" width="39.59" height="39.59" fill="#61ebe6"/><rect x="158.36363636363637" y="554.2727272727273" width="79.18181818181819" height="79.18181818181819" fill="#ffffff"/><rect x="158.36" y="554.27" width="39.59" height="39.59" fill="#e2fbfa"/><polygon points="197.95000000000002,554.27 197.95000000000002,593.86 158.36,593.86" fill="#d7faf9"/><rect x="197.95" y="554.27" width="39.59" height="39.59" fill="#d9ffdd"/><polygon points="197.95,554.27 237.54,554.27 197.95,593.86" fill="#bdf7f5"/><rect x="158.36" y="593.86" width="39.59" height="39.59" fill="#d1ffd7"/><polygon points="158.36,593.86 197.95000000000002,593.86 197.95000000000002,633.45" fill="#e0ffe4"/><rect x="197.95" y="593.86" width="39.59" height="39.59" fill="#e7ffea"/><polygon points="197.95,593.86 237.54,633.45 197.95,633.45" fill="#caffd1"/><rect x="237.55" y="554.27" width="79.18" height="79.18" fill="#75eeea"/><path d="M 237.55 633.45 A 79.18 79.18 0 0 1  316.73 554.27 L 316.73 633.45" fill="#f9fff9"/><rect x="316.72727272727275" y="554.2727272727273" width="79.18181818181819" height="79.18181818181819" fill="#ffffff"/><rect x="316.73" y="554.27" width="39.59" height="39.59" fill="#3be6e1"/><path d="M 316.73 554.27 A 39.59 39.59 0 0 0 356.32000000000005 593.86 L 356.32000000000005 554.27" fill="#ddfbfa"/><rect x="356.32" y="554.27" width="39.59" height="39.59" fill="#ddffe1"/><path d="M 356.32 593.86 A 39.59 39.59 0 0 0 395.90999999999997 554.27 L 356.32 554.27" fill="#caf8f7"/><rect x="316.73" y="593.86" width="39.59" height="39.59" fill="#39e6e0"/><path d="M 316.73 633.45 A 39.59 39.59 0 0 1  356.32000000000005 593.86 L 356.32000000000005 633.45" fill="#70ede9"/><rect x="356.32" y="593.86" width="39.59" height="39.59" fill="#aeffb8"/><path d="M 356.32 593.86 A 39.59 39.59 0 0 1 395.90999999999997 633.45 L 356.32 633.45" fill="#9df3f0"/><rect x="395.90909090909093" y="554.2727272727273" width="79.18181818181819" height="79.18181818181819" fill="#ffffff"/><rect x="395.91" y="554.27" width="39.59" height="39.59" fill="#bfffc7"/><circle cx="415.70500000000004" cy="574.0649999999999" r="19.795" fill="#a5ffb0"/><rect x="435.5" y="554.27" width="39.59" height="39.59" fill="#fdfffd"/><rect x="435.5" y="554.27" width="39.59" height="39.59" fill="#72ede9"/><rect x="395.91" y="593.86" width="39.59" height="39.59" fill="#dcffe0"/><circle cx="415.70500000000004" cy="613.655" r="19.795" fill="#1ee3dc"/><rect x="435.5" y="593.86" width="39.59" height="39.59" fill="#f5fff7"/><rect x="435.5" y="593.86" width="39.59" height="39.59" fill="#d9ffde"/><rect x="475.09" y="554.27" width="79.18" height="79.18" fill="#1fe3dc"/><rect x="475.09" y="554.27" width="79.18" height="79.18" fill="#a6ffb0"/><rect x="554.2727272727273" y="554.2727272727273" width="79.18181818181819" height="79.18181818181819" fill="#ffffff"/><rect x="554.27" y="554.27" width="39.59" height="39.59" fill="#edffef"/><path d="M 554.27 593.86 A 39.59 39.59 0 0 0 593.86 554.27 L 554.27 554.27" fill="#d3faf8"/><rect x="593.86" y="554.27" width="39.59" height="39.59" fill="#a0f3f0"/><path d="M 593.86 554.27 A 39.59 39.59 0 0 0 633.45 593.86 L 633.45 554.27" fill="#e6ffe9"/><rect x="554.27" y="593.86" width="39.59" height="39.59" fill="#57eae5"/><path d="M 554.27 593.86 A 39.59 39.59 0 0 1 593.86 633.45 L 554.27 633.45" fill="#9bf2ef"/><rect x="593.86" y="593.86" width="39.59" height="39.59" fill="#a8ffb2"/><path d="M 593.86 633.45 A 39.59 39.59 0 0 1  633.45 593.86 L 633.45 633.45" fill="#ceffd4"/><rect x="633.4545454545455" y="554.2727272727273" width="79.18181818181819" height="79.18181818181819" fill="#ffffff"/><rect x="633.45" y="554.27" width="39.59" height="39.59" fill="#ceffd4"/><circle cx="653.245" cy="574.0649999999999" r="19.795" fill="#e9ffeb"/><rect x="673.05" y="554.27" width="39.59" height="39.59" fill="#cef9f7"/><rect x="673.05" y="554.27" width="39.59" height="39.59" fill="#e8ffeb"/><rect x="633.45" y="593.86" width="39.59" height="39.59" fill="#87f0ec"/><circle cx="653.245" cy="613.655" r="19.795" fill="#f5fff6"/><rect x="673.05" y="593.86" width="39.59" height="39.59" fill="#24e4dd"/><rect x="673.05" y="593.86" width="39.59" height="39.59" fill="#ceffd3"/><rect x="712.6363636363637" y="554.2727272727273" width="79.18181818181819" height="79.18181818181819" fill="#ffffff"/><rect x="712.64" y="554.27" width="39.59" height="39.59" fill="#6cede8"/><polygon points="752.23,554.27 752.23,593.86 712.64,593.86" fill="#40e7e1"/><rect x="752.23" y="554.27" width="39.59" height="39.59" fill="#bff7f5"/><polygon points="752.23,554.27 791.82,593.86 752.23,593.86" fill="#c5ffcb"/><rect x="712.64" y="593.86" width="39.59" height="39.59" fill="#fcffff"/><polygon points="712.64,593.86 752.23,593.86 752.23,633.45" fill="#aeffb8"/><rect x="752.23" y="593.86" width="39.59" height="39.59" fill="#b8ffc1"/><polygon points="752.23,593.86 791.82,593.86 752.23,633.45" fill="#74eee9"/><rect x="0" y="633.45" width="79.18" height="79.18" fill="#d3faf8"/><rect x="0" y="633.45" width="79.18" height="79.18" fill="#edffef"/><rect x="79.18" y="633.45" width="79.18" height="79.18" fill="#7beeea"/><path d="M 79.18 712.6300000000001 A 79.18 79.18 0 0 0 158.36 633.45 L 79.18 633.45" fill="#81efeb"/><rect x="158.36" y="633.45" width="79.18" height="79.18" fill="#bcffc4"/><polygon points="158.36,633.45 237.54000000000002,712.6300000000001 158.36,712.6300000000001" fill="#9cf3f0"/><rect x="237.55" y="633.45" width="79.18" height="79.18" fill="#57eae5"/><rect x="237.55" y="633.45" width="79.18" height="79.18" fill="#8df1ed"/><rect x="316.73" y="633.45" width="79.18" height="79.18" fill="#4ae8e3"/><polygon points="395.91,633.45 395.91,712.6300000000001 316.73,712.6300000000001" fill="#f4fff5"/><rect x="395.90909090909093" y="633.4545454545455" width="79.18181818181819" height="79.18181818181819" fill="#ffffff"/><rect x="395.91" y="633.45" width="39.59" height="39.59" fill="#eaffed"/><polygon points="435.5,633.45 435.5,673.0400000000001 395.91,673.0400000000001" fill="#d6ffdb"/><rect x="435.5" y="633.45" width="39.59" height="39.59" fill="#aaf4f2"/><polygon points="435.5,633.45 475.09000000000003,673.0400000000001 435.5,673.0400000000001" fill="#c9f8f7"/><rect x="395.91" y="673.05" width="39.59" height="39.59" fill="#adffb7"/><polygon points="395.91,673.05 435.5,673.05 435.5,712.64" fill="#f5fff6"/><rect x="435.5" y="673.05" width="39.59" height="39.59" fill="#2de5de"/><polygon points="435.5,673.05 475.09000000000003,673.05 435.5,712.64" fill="#e0ffe4"/><rect x="475.09" y="633.45" width="79.18" height="79.18" fill="#8cf1ed"/><rect x="475.09" y="633.45" width="79.18" height="79.18" fill="#fbfffe"/><rect x="554.27" y="633.45" width="79.18" height="79.18" fill="#9df3f0"/><polygon points="633.45,633.45 633.45,712.6300000000001 554.27,712.6300000000001" fill="#79eeea"/><rect x="633.4545454545455" y="633.4545454545455" width="79.18181818181819" height="79.18181818181819" fill="#ffffff"/><rect x="633.45" y="633.45" width="39.59" height="39.59" fill="#dbffdf"/><path d="M 633.45 673.0400000000001 A 39.59 39.59 0 0 1  673.0400000000001 633.45 L 673.0400000000001 673.0400000000001" fill="#fcfffc"/><rect x="673.05" y="633.45" width="39.59" height="39.59" fill="#c8ffcf"/><path d="M 673.05 633.45 A 39.59 39.59 0 0 1 712.64 673.0400000000001 L 673.05 673.0400000000001" fill="#e6ffe9"/><rect x="633.45" y="673.05" width="39.59" height="39.59" fill="#fbfffc"/><path d="M 633.45 673.05 A 39.59 39.59 0 0 0 673.0400000000001 712.64 L 673.0400000000001 673.05" fill="#bfffc6"/><rect x="673.05" y="673.05" width="39.59" height="39.59" fill="#feffff"/><path d="M 673.05 712.64 A 39.59 39.59 0 0 0 712.64 673.05 L 673.05 673.05" fill="#f7fff8"/><rect x="712.6363636363637" y="633.4545454545455" width="79.18181818181819" height="79.18181818181819" fill="#ffffff"/><rect x="712.64" y="633.45" width="39.59" height="39.59" fill="#59eae5"/><path d="M 712.64 673.0400000000001 A 39.59 39.59 0 0 0 752.23 633.45 L 712.64 633.45" fill="#deffe2"/><rect x="752.23" y="633.45" width="39.59" height="39.59" fill="#eefff0"/><path d="M 752.23 633.45 A 39.59 39.59 0 0 0 791.82 673.0400000000001 L 791.82 633.45" fill="#a5f4f1"/><rect x="712.64" y="673.05" width="39.59" height="39.59" fill="#8ff1ee"/><path d="M 712.64 673.05 A 39.59 39.59 0 0 1 752.23 712.64 L 712.64 712.64" fill="#daffde"/><rect x="752.23" y="673.05" width="39.59" height="39.59" fill="#f7fefe"/><path d="M 752.23 712.64 A 39.59 39.59 0 0 1  791.82 673.05 L 791.82 712.64" fill="#bdffc4"/><rect x="0" y="712.64" width="79.18" height="79.18" fill="#84f0ec"/><polygon points="0,712.64 79.18,712.64 79.18,791.8199999999999" fill="#c3ffca"/><rect x="79.18181818181819" y="712.6363636363637" width="79.18181818181819" height="79.18181818181819" fill="#ffffff"/><rect x="79.18" y="712.64" width="39.59" height="39.59" fill="#66ece7"/><polygon points="118.77000000000001,712.64 118.77000000000001,752.23 79.18,752.23" fill="#6eede8"/><rect x="118.77" y="712.64" width="39.59" height="39.59" fill="#bcf7f5"/><polygon points="118.77,712.64 158.36,752.23 118.77,752.23" fill="#deffe2"/><rect x="79.18" y="752.23" width="39.59" height="39.59" fill="#bfffc7"/><polygon points="79.18,752.23 118.77000000000001,752.23 118.77000000000001,791.82" fill="#9cf3f0"/><rect x="118.77" y="752.23" width="39.59" height="39.59" fill="#b7ffc0"/><polygon points="118.77,752.23 158.36,752.23 118.77,791.82" fill="#51e9e4"/><rect x="158.36" y="712.64" width="79.18" height="79.18" fill="#d5ffda"/><rect x="158.36" y="712.64" width="79.18" height="79.18" fill="#abf4f2"/><rect x="237.55" y="712.64" width="79.18" height="79.18" fill="#f8fff9"/><path d="M 237.55 712.64 A 79.18 79.18 0 0 1  316.73 791.8199999999999 L 237.55 712.64 A 79.18 79.18 0 0 0 316.73 791.8199999999999" fill="#b3f6f3"/><rect x="316.72727272727275" y="712.6363636363637" width="79.18181818181819" height="79.18181818181819" fill="#ffffff"/><rect x="316.73" y="712.64" width="39.59" height="39.59" fill="#bdffc5"/><path d="M 316.73 712.64 A 39.59 39.59 0 0 0 356.32000000000005 752.23 L 356.32000000000005 712.64" fill="#b5ffbe"/><rect x="356.32" y="712.64" width="39.59" height="39.59" fill="#36e6e0"/><path d="M 356.32 752.23 A 39.59 39.59 0 0 0 395.90999999999997 712.64 L 356.32 712.64" fill="#f2fdfd"/><rect x="316.73" y="752.23" width="39.59" height="39.59" fill="#35e6df"/><path d="M 316.73 791.82 A 39.59 39.59 0 0 1  356.32000000000005 752.23 L 356.32000000000005 791.82" fill="#c0ffc7"/><rect x="356.32" y="752.23" width="39.59" height="39.59" fill="#54eae4"/><path d="M 356.32 752.23 A 39.59 39.59 0 0 1 395.90999999999997 791.82 L 356.32 791.82" fill="#8cf1ed"/><rect x="395.90909090909093" y="712.6363636363637" width="79.18181818181819" height="79.18181818181819" fill="#ffffff"/><rect x="395.91" y="712.64" width="39.59" height="39.59" fill="#f8fefe"/><polygon points="435.5,712.64 435.5,752.23 395.91,752.23" fill="#33e5df"/><rect x="435.5" y="712.64" width="39.59" height="39.59" fill="#aaffb4"/><polygon points="435.5,712.64 475.09000000000003,712.64 435.5,752.23" fill="#abffb5"/><rect x="395.91" y="752.23" width="39.59" height="39.59" fill="#f3fff4"/><polygon points="395.91,752.23 435.5,752.23 435.5,791.82" fill="#9ff3f0"/><rect x="435.5" y="752.23" width="39.59" height="39.59" fill="#f8fff9"/><polygon points="435.5,752.23 475.09000000000003,791.82 435.5,791.82" fill="#eefdfc"/><rect x="475.09" y="712.64" width="79.18" height="79.18" fill="#e6ffe9"/><rect x="475.09" y="712.64" width="79.18" height="79.18" fill="#d6ffdb"/><rect x="554.27" y="712.64" width="79.18" height="79.18" fill="#4ce9e3"/><polygon points="554.27,712.64 633.45,791.8199999999999 554.27,791.8199999999999" fill="#cfffd4"/><rect x="633.4545454545455" y="712.6363636363637" width="79.18181818181819" height="79.18181818181819" fill="#ffffff"/><rect x="633.45" y="712.64" width="39.59" height="39.59" fill="#d2f9f8"/><polygon points="673.0400000000001,712.64 673.0400000000001,752.23 633.45,752.23" fill="#8ff1ee"/><rect x="673.05" y="712.64" width="39.59" height="39.59" fill="#f6fff7"/><polygon points="673.05,712.64 712.64,752.23 673.05,752.23" fill="#4fe9e4"/><rect x="633.45" y="752.23" width="39.59" height="39.59" fill="#53e9e4"/><polygon points="633.45,752.23 673.0400000000001,752.23 673.0400000000001,791.82" fill="#c6ffcd"/><rect x="673.05" y="752.23" width="39.59" height="39.59" fill="#a9ffb4"/><polygon points="673.05,752.23 712.64,752.23 673.05,791.82" fill="#d5ffda"/><rect x="712.64" y="712.64" width="79.18" height="79.18" fill="#d8ffdc"/><polygon points="712.64,712.64 791.8199999999999,712.64 712.64,791.8199999999999" fill="#e1fbfa"/><rect x="0" y="791.82" width="79.18" height="79.18" fill="#b6ffbf"/><polygon points="0,791.82 79.18,871 0,871" fill="#caffd1"/><rect x="79.18181818181819" y="791.8181818181819" width="79.18181818181819" height="79.18181818181819" fill="#ffffff"/><rect x="79.18" y="791.82" width="39.59" height="39.59" fill="#37e6e0"/><polygon points="118.77000000000001,791.82 118.77000000000001,831.4100000000001 79.18,831.4100000000001" fill="#d8ffdd"/><rect x="118.77" y="791.82" width="39.59" height="39.59" fill="#e6ffe9"/><polygon points="118.77,791.82 158.36,791.82 118.77,831.4100000000001" fill="#e3ffe7"/><rect x="79.18" y="831.41" width="39.59" height="39.59" fill="#d6ffdb"/><polygon points="79.18,831.41 118.77000000000001,831.41 118.77000000000001,871" fill="#fdffff"/><rect x="118.77" y="831.41" width="39.59" height="39.59" fill="#83efec"/><polygon points="118.77,831.41 158.36,871 118.77,871" fill="#50e9e4"/><rect x="158.36" y="791.82" width="79.18" height="79.18" fill="#9ff3f0"/><path d="M 158.36 871 A 79.18 79.18 0 0 1  237.54000000000002 791.82 L 237.54000000000002 871" fill="#e2fbfb"/><rect x="237.54545454545456" y="791.8181818181819" width="79.18181818181819" height="79.18181818181819" fill="#ffffff"/><rect x="237.55" y="791.82" width="39.59" height="39.59" fill="#30e5df"/><path d="M 237.55 831.4100000000001 A 39.59 39.59 0 0 1  277.14 791.82 L 277.14 831.4100000000001" fill="#fdffff"/><rect x="277.14" y="791.82" width="39.59" height="39.59" fill="#e9ffec"/><path d="M 277.14 791.82 A 39.59 39.59 0 0 1 316.73 831.4100000000001 L 277.14 831.4100000000001" fill="#c4ffcb"/><rect x="237.55" y="831.41" width="39.59" height="39.59" fill="#c1ffc9"/><path d="M 237.55 831.41 A 39.59 39.59 0 0 0 277.14 871 L 277.14 831.41" fill="#f4fff5"/><rect x="277.14" y="831.41" width="39.59" height="39.59" fill="#9df3f0"/><path d="M 277.14 871 A 39.59 39.59 0 0 0 316.73 831.41 L 277.14 831.41" fill="#fbfffb"/><rect x="316.72727272727275" y="791.8181818181819" width="79.18181818181819" height="79.18181818181819" fill="#ffffff"/><rect x="316.73" y="791.82" width="39.59" height="39.59" fill="#4ae8e3"/><circle cx="336.52500000000003" cy="811.615" r="19.795" fill="#ddffe1"/><rect x="356.32" y="791.82" width="39.59" height="39.59" fill="#b8f6f4"/><rect x="356.32" y="791.82" width="39.59" height="39.59" fill="#e1ffe4"/><rect x="316.73" y="831.41" width="39.59" height="39.59" fill="#89f0ed"/><circle cx="336.52500000000003" cy="851.2049999999999" r="19.795" fill="#afffb9"/><rect x="356.32" y="831.41" width="39.59" height="39.59" fill="#ecffee"/><rect x="356.32" y="831.41" width="39.59" height="39.59" fill="#f2fff4"/><rect x="395.90909090909093" y="791.8181818181819" width="79.18181818181819" height="79.18181818181819" fill="#ffffff"/><rect x="395.91" y="791.82" width="39.59" height="39.59" fill="#c6f8f6"/><path d="M 395.91 831.4100000000001 A 39.59 39.59 0 0 1  435.5 791.82 L 435.5 831.4100000000001" fill="#fafffb"/><rect x="435.5" y="791.82" width="39.59" height="39.59" fill="#a4ffaf"/><path d="M 435.5 791.82 A 39.59 39.59 0 0 1 475.09000000000003 831.4100000000001 L 435.5 831.4100000000001" fill="#e8ffeb"/><rect x="395.91" y="831.41" width="39.59" height="39.59" fill="#a0f3f0"/><path d="M 395.91 831.41 A 39.59 39.59 0 0 0 435.5 871 L 435.5 831.41" fill="#a8ffb2"/><rect x="435.5" y="831.41" width="39.59" height="39.59" fill="#f0fdfd"/><path d="M 435.5 871 A 39.59 39.59 0 0 0 475.09000000000003 831.41 L 435.5 831.41" fill="#e3ffe7"/><rect x="475.0909090909091" y="791.8181818181819" width="79.18181818181819" height="79.18181818181819" fill="#ffffff"/><rect x="475.09" y="791.82" width="39.59" height="39.59" fill="#ccf9f7"/><polygon points="514.68,791.82 514.68,831.4100000000001 475.09,831.4100000000001" fill="#61ebe6"/><rect x="514.68" y="791.82" width="39.59" height="39.59" fill="#c9f8f7"/><polygon points="514.68,791.82 554.27,831.4100000000001 514.68,831.4100000000001" fill="#90f1ee"/><rect x="475.09" y="831.41" width="39.59" height="39.59" fill="#b1f5f3"/><polygon points="475.09,831.41 514.68,831.41 514.68,871" fill="#f2fff3"/><rect x="514.68" y="831.41" width="39.59" height="39.59" fill="#a4f4f1"/><polygon points="514.68,831.41 554.27,831.41 514.68,871" fill="#cdffd3"/><rect x="554.27" y="791.82" width="79.18" height="79.18" fill="#1de3dc"/><polygon points="554.27,791.82 633.45,791.82 554.27,871" fill="#d8faf9"/><rect x="633.45" y="791.82" width="79.18" height="79.18" fill="#b0ffb9"/><polygon points="633.45,791.82 712.6300000000001,791.82 712.6300000000001,871" fill="#fefffe"/><rect x="712.64" y="791.82" width="79.18" height="79.18" fill="#b1ffba"/><rect x="712.64" y="791.82" width="79.18" height="79.18" fill="#98f2ef"/></g></svg>