<?xml version="1.0" encoding="utf-8"?>
<!-- Generator: Adobe Illustrator 26.1.0, SVG Export Plug-In . SVG Version: 6.00 Build 0)  -->
<svg version="1.1" id="Layer_1" xmlns="http://www.w3.org/2000/svg" xmlns:xlink="http://www.w3.org/1999/xlink" x="0px" y="0px"
	 viewBox="0 0 36 36" style="enable-background:new 0 0 36 36;" xml:space="preserve">
<style type="text/css">
	.st0{fill:#231F20;}
	.st1{fill:#99AAB5;}
	.st2{fill:#CCD6DD;}
	.st3{fill:#66757F;}
	.st4{fill:#E1E8ED;}
</style>
<path class="st0" d="M12,4.2c0,0,4-1.1,5-1.1s5,1.1,5,1.1s4,4.3,5,4.3c0,0,2,0,4,2.1s2,6.4,2,6.4s2,4.3,2,6.4s-1,4.3-2,5.4
	S28,31,28,31s-1,2.1-3,3.2c-6,1.1-10,0-10,0l-2-2.1c0,0-7-1.1-8-1.1s-4-4.3-4-5.4s0-4.3,1-7.5c2-3.2,3-4.3,3-4.3s-1-2.1,0-4.3
	c2-2.1,6-3.2,6-3.2S12,4.2,12,4.2z"/>
<path class="st1" d="M12.4,4.5c0,0,3.6-1,4.6-1s5,1.1,5,1.1s3.6,4,4.5,4c0,0,2,0,3.9,2c1.9,2,1.7,5.6,1.7,5.6s1.9,4,1.9,6.1
	s-0.9,4-1.9,5.1c-0.9,1-4.7,2-4.7,2s-0.9,2-2.8,3c-5.6,1-9.4,0-9.4,0l-1.9-2c0,0-6.6-1-7.5-1S2,25.3,2,24.3c0-1,0-4,0.9-7.1
	c1.9-3,2.8-4,2.8-4s-1.2-1.6-0.2-3.7c1.9-2,5.9-3.1,5.9-3.1L12.4,4.5z"/>
<path class="st2" d="M12.8,5.3c0,0,3.4-0.9,4.3-0.9s4.7,1,4.7,1s3.3,3.5,4.2,3.5c0,0,1.9,0,3.7,1.7c1.8,1.8,1.6,4.9,1.6,4.9
	s0.3,4.2,1,4.4c1.8,0.3,0.2,3.7-0.7,4.6s-7,1.3-7,1.3s0.2,2.8-1.5,3.6c-5.3,0.9-7.6,0.2-7.6,0.2l-1.8-1.8c0,0-4.3-4.1-5.2-4.1
	S3,23.5,3,22.6s0-3.5,0.9-6.2c1.8-2.6,2.6-3.5,2.6-3.5s-1.1-1.4-0.2-3.2C8.1,7.9,11.8,7,11.8,7S12.8,5.3,12.8,5.3z"/>
<path class="st1" d="M6.3,12.6l4,1.9l-2.1,1.5l-4.3,0.5L6.3,12.6z"/>
<path class="st3" d="M1.6,22c0,0,1.1,3.8,1.4,4.2s4.1,0.1,4.6,0.1s2.8,1.2,2.8,1.2s-3.1,0.8-4.2,0.7s-3.8-0.6-4.1-1.3S1.6,22,1.6,22
	z"/>
<path class="st4" d="M7.3,9.6c0.5-0.2,3.9-1.6,4.6-1.5s3.7,1.8,3,2.4s-4.6,0.1-5.8,0.1S6.3,9.9,7.3,9.6z M4.9,17.3
	c0.3-0.6,4.3-0.8,4.3-0.8s5.2,2.1,5.2,2.4s-4.8,2.5-5.2,2.6S4.7,17.8,4.9,17.3z M16.6,21.2c-0.1-0.5,2-3.6,2.4-3.8s6-1.7,6.9-1.7
	s4,2.2,4,2.7c0.1,0.4-2.7,3.5-3.4,3.8C26,22.4,16.8,22.2,16.6,21.2z M22,12.8c-0.2,0.5,5.3,1.3,5.9,1c0.6-0.3,1.7-2,1.5-2.4
	c-0.2-0.4-1.9-1.7-2.8-1.6C25.7,9.9,22.5,11.5,22,12.8z M17.6,4.9c0.5,0.1,3.8,0.9,4.2,1.5s-2,2.6-2.6,2.7c-0.7,0.1-5.1-2.7-5.6-3
	S16.7,4.7,17.6,4.9z"/>
<path class="st3" d="M13.1,31.4c-0.4-0.6,0.2-2.7,0.6-2.5s1.4,1,1.5,1.7c0.1,0.6,1.1,1.9,1.9,2.2s5,0.4,5.7,0.1s2.4-1.7,2.8-2.5
	s0.9-0.9,1.9-1s1.9,0.8,0.6,1.6c-1.3,0.8-2.8,2.2-4.4,2.5c-1.7,0.3-7.1,0.6-8,0.2S13.1,31.4,13.1,31.4z"/>
<path class="st1" d="M20.2,26.8c-0.5-0.3-0.7-2.5-0.4-2.7s2.7,0.2,3.2,0.3c0.6,0.1,4-0.2,4.3,0.2s1.2,1.7,1.5,2.5
	c0.3,0.8-1.6,0.7-2.3,0.5S20.9,27.1,20.2,26.8z M12.6,12c0.7,0,3.4-0.1,4,0c0.6,0.1,2.5,1.9,1.6,2c-0.9,0.2-3.3,0.8-3.6,0.9
	s-1.7-1.1-2.1-1.5C12.1,13.2,11.9,12,12.6,12z M20.1,10.2c0.3-0.5,1.6-0.7,1.7-0.1c0.1,0.6-0.3,1.9-1,1.8C20,11.8,19.6,11,20.1,10.2
	z M16.6,23.7c0.6-0.1,1.7-0.2,1.7,0.3s-0.7,0.7-1.5,0.6C16,24.6,16.1,23.8,16.6,23.7z"/>
<path class="st4" d="M14.3,16.6c0.5-0.4,2.3-0.5,2.7-0.3s-0.5,1.5-1,1.6C15.5,18,13.7,17.1,14.3,16.6z"/>
<path class="st3" d="M26.2,26.4c0.6-0.2,2-0.3,2,0.1c-0.1,0.4-0.7,1.3-1.1,1.2S25.7,26.5,26.2,26.4z M22.3,30.9
	c0.7-0.1,1.7-0.6,1.6,0s-0.8,1.5-1.5,1.3C21.6,32.1,21.6,31,22.3,30.9z"/>
</svg>
